<?xml version="1.0" standalone="no"?>
<!DOCTYPE svg PUBLIC "-//W3C//DTD SVG 20010904//EN"
 "http://www.w3.org/TR/2001/REC-SVG-20010904/DTD/svg10.dtd">
<svg version="1.0" xmlns="http://www.w3.org/2000/svg"
 width="1846.000000pt" height="102.000000pt" viewBox="0 0 1846.000000 102.000000"
 preserveAspectRatio="xMidYMid meet">

<g transform="translate(0.000000,102.000000) scale(0.100000,-0.100000)"
fill="#000000" stroke="none">
<path d="M1070 520 l0 -412 28 7 c58 14 233 84 303 121 91 49 117 80 100 122
-15 35 -48 61 -154 117 l-80 43 69 35 c209 106 222 165 57 250 -75 38 -222 98
-300 122 l-23 6 0 -411z m263 233 c100 -47 107 -55 65 -81 -39 -24 -187 -98
-223 -112 l-25 -10 0 140 0 140 53 -21 c28 -11 87 -36 130 -56z m-48 -328 c61
-30 119 -63 128 -73 17 -18 15 -20 -40 -50 -51 -27 -205 -92 -218 -92 -3 0 -5
61 -5 135 0 97 3 135 12 135 6 0 62 -25 123 -55z"/>
<path d="M5050 921 c-60 -12 -60 -12 -60 -145 l0 -122 -35 -17 c-97 -46 -98
-181 0 -238 l35 -21 0 -118 c0 -124 7 -146 47 -138 16 3 18 17 21 122 l3 119
46 -7 c26 -3 63 -14 82 -24 l36 -17 5 -89 c5 -93 18 -117 54 -103 13 5 16 23
16 106 0 91 -2 102 -25 129 -28 34 -74 54 -157 72 l-58 11 0 78 0 78 67 12
c81 15 140 46 159 83 37 72 5 175 -66 210 -42 20 -122 29 -170 19z m161 -100
c25 -31 24 -83 -1 -106 -16 -14 -111 -44 -142 -45 -5 0 -8 41 -8 91 l0 91 66
-4 c55 -3 70 -8 85 -27z m-221 -307 c0 -48 -2 -55 -15 -44 -21 18 -27 44 -16
74 17 43 31 30 31 -30z"/>
<path d="M16373 923 c-10 -3 -13 -43 -13 -149 0 -79 -4 -144 -8 -144 -5 0 -17
9 -28 21 -26 29 -50 40 -68 33 -30 -11 -17 -49 34 -99 l49 -49 -49 -52 c-52
-54 -65 -96 -34 -108 18 -7 42 4 68 33 11 12 23 21 28 21 4 0 8 -65 8 -144 0
-140 1 -145 22 -152 40 -12 48 17 48 170 l0 140 39 -38 c34 -33 42 -36 60 -27
32 18 26 37 -30 97 l-52 54 52 54 c56 60 62 79 30 97 -17 9 -25 7 -47 -13 -15
-12 -32 -30 -39 -38 -10 -12 -12 11 -13 123 0 163 -9 190 -57 170z"/>
<path d="M17152 917 c-6 -7 -13 -64 -14 -127 l-3 -113 -66 -22 c-94 -32 -111
-43 -107 -68 5 -36 48 -33 166 11 9 3 12 -12 12 -55 l0 -58 -85 -29 c-90 -31
-112 -53 -81 -84 14 -15 22 -14 91 9 l75 26 0 -127 c0 -104 3 -130 16 -141 11
-9 20 -10 32 -2 14 8 18 34 22 153 l5 143 88 30 c78 26 87 31 87 53 0 42 -16
42 -163 -3 -16 -5 -18 0 -15 53 l3 59 85 30 c66 24 86 35 88 51 6 39 -18 45
-87 24 -95 -30 -91 -34 -91 78 0 96 -8 122 -36 122 -6 0 -16 -6 -22 -13z"/>
<path d="M166 905 c-9 -9 -12 -23 -9 -33 4 -9 57 -93 119 -186 l112 -168 -119
-180 c-100 -151 -117 -182 -109 -199 24 -44 47 -23 161 147 l111 166 109 -163
c84 -127 114 -164 130 -164 12 0 27 8 32 17 9 14 -11 50 -107 193 -64 97 -115
183 -112 190 3 8 55 88 115 179 61 91 111 172 111 180 0 22 -38 40 -54 27 -7
-6 -59 -81 -116 -166 -57 -85 -106 -155 -109 -155 -3 0 -51 69 -106 152 -127
192 -128 193 -159 163z"/>
<path d="M2706 905 c-14 -15 -16 -60 -16 -389 0 -383 1 -396 40 -396 26 0 160
68 225 114 156 112 211 269 142 408 -38 78 -132 163 -243 220 -114 59 -128 63
-148 43z m134 -116 c79 -42 164 -120 190 -175 29 -59 29 -137 1 -191 -27 -53
-123 -141 -199 -181 l-62 -33 0 305 c0 168 3 306 6 306 3 0 32 -14 64 -31z"/>
<path d="M3798 909 c-16 -9 -18 -28 -18 -159 l0 -150 -120 -60 c-124 -62 -141
-80 -104 -111 13 -11 31 -5 120 39 l104 52 2 -192 c3 -163 5 -192 19 -201 9
-6 24 -7 33 -4 14 6 16 44 16 390 0 417 -1 426 -52 396z"/>
<path d="M4280 910 c-13 -8 -15 -63 -18 -380 -3 -384 0 -410 38 -410 34 0 40
33 40 212 l0 173 180 180 c99 99 180 188 180 197 0 10 -10 22 -21 29 -20 10
-35 -3 -180 -147 l-159 -159 0 39 c0 36 8 47 90 132 50 50 90 96 90 102 0 12
-28 42 -38 42 -4 0 -36 -27 -72 -60 l-65 -59 -5 50 c-7 59 -27 80 -60 59z"/>
<path d="M5972 908 c-8 -8 -12 -58 -12 -157 l0 -145 -34 33 c-23 22 -41 32
-57 29 -42 -6 -35 -37 22 -94 l53 -54 -52 -53 c-56 -57 -66 -91 -31 -102 16
-5 30 2 60 31 l39 38 0 -152 c0 -132 2 -153 16 -159 9 -3 24 -2 33 4 13 8 16
34 19 152 l3 143 35 -31 c38 -34 53 -38 72 -19 21 21 13 41 -40 95 l-52 53 53
54 c57 57 64 88 22 94 -16 3 -34 -7 -57 -29 l-34 -33 0 147 c0 134 -2 147 -19
157 -24 13 -24 13 -39 -2z"/>
<path d="M6676 896 c-39 -38 -29 -88 20 -106 43 -17 84 13 84 61 0 33 -19 56
-52 64 -21 5 -33 1 -52 -19z"/>
<path d="M7608 909 c-16 -9 -18 -30 -18 -206 0 -152 -3 -194 -12 -191 -113 42
-303 99 -320 96 l-23 -3 0 -240 c0 -223 1 -240 18 -243 43 -8 47 10 47 213 l0
193 165 -55 c134 -44 168 -53 180 -43 12 10 15 52 15 239 0 250 -4 268 -52
240z"/>
<path d="M7966 905 c-14 -15 -16 -58 -16 -389 0 -397 1 -403 47 -394 17 3 18
26 21 356 1 193 3 352 5 352 1 0 76 -24 166 -54 90 -30 170 -52 177 -49 16 6
25 29 18 47 -3 9 -86 41 -192 77 -103 34 -192 64 -198 66 -6 2 -19 -3 -28 -12z"/>
<path d="M8752 908 c-26 -26 -3 -130 42 -199 29 -44 117 -99 159 -99 l27 0 0
-234 c0 -247 3 -263 47 -254 17 3 18 22 23 242 l5 239 47 12 c106 27 188 136
188 250 0 58 -54 72 -66 16 -21 -106 -48 -152 -103 -181 -70 -35 -71 -34 -71
89 0 119 -9 143 -49 121 -19 -10 -21 -20 -21 -120 0 -126 -2 -128 -76 -85 -46
27 -81 85 -91 152 -3 21 -12 44 -21 51 -20 15 -25 15 -40 0z"/>
<path d="M9902 908 c-9 -9 -12 -111 -12 -395 0 -346 2 -384 16 -390 9 -3 24
-2 33 4 14 9 16 38 19 201 l2 192 104 -52 c89 -44 107 -50 120 -39 37 31 20
49 -104 111 l-120 60 0 150 c0 137 -2 150 -19 160 -24 13 -24 13 -39 -2z"/>
<path d="M10882 908 c-7 -7 -12 -43 -12 -90 l0 -77 -55 -26 c-65 -31 -103 -77
-121 -144 -27 -106 32 -222 132 -256 l39 -13 5 -88 c4 -75 8 -89 23 -92 36 -7
47 16 47 98 l0 77 57 29 c167 85 159 320 -12 391 l-45 18 0 77 c0 56 -4 81
-16 92 -19 19 -26 20 -42 4z m136 -305 c45 -65 36 -140 -24 -193 -19 -16 -39
-30 -44 -30 -6 0 -10 57 -10 140 l0 141 29 -16 c16 -8 38 -27 49 -42z m-148
-88 c0 -91 -4 -135 -11 -135 -20 0 -69 41 -84 70 -21 40 -19 109 3 143 23 34
52 56 75 57 15 0 17 -13 17 -135z"/>
<path d="M11532 908 c-17 -17 -17 -342 1 -355 6 -6 44 -18 82 -27 39 -9 87
-21 107 -27 l38 -10 2 -176 c3 -149 5 -177 19 -186 9 -6 24 -7 33 -4 14 6 16
29 16 186 l0 180 38 10 c20 5 72 19 115 30 43 10 82 22 85 26 4 4 8 76 10 161
3 129 1 159 -13 180 -18 28 -28 30 -49 8 -13 -13 -16 -42 -16 -157 l0 -142
-73 -18 c-39 -9 -78 -17 -84 -17 -10 0 -13 39 -13 164 0 178 -6 199 -49 176
-20 -10 -21 -19 -21 -175 0 -126 -3 -165 -12 -165 -7 0 -44 9 -83 18 l-70 18
-3 144 c-1 85 -7 149 -14 157 -13 16 -30 17 -46 1z"/>
<path d="M12442 908 c-9 -9 -12 -110 -12 -395 0 -346 2 -384 16 -390 9 -3 24
-2 33 4 13 8 16 34 19 153 l3 144 153 -152 c84 -84 159 -152 167 -152 19 0 39
20 39 39 0 8 -74 89 -165 180 l-164 166 105 54 c108 56 164 105 164 143 0 36
-76 96 -193 152 -134 65 -149 70 -165 54z m153 -128 c106 -54 133 -74 117 -92
-13 -16 -184 -108 -201 -108 -7 0 -11 38 -11 120 0 66 3 120 7 120 4 0 43 -18
88 -40z"/>
<path d="M13286 904 c-14 -14 -16 -60 -14 -391 3 -333 5 -377 19 -386 9 -6 24
-7 33 -4 14 6 16 44 16 390 0 376 -2 407 -31 407 -4 0 -15 -7 -23 -16z"/>
<path d="M13965 857 c-99 -34 -186 -66 -193 -70 -6 -5 -12 -16 -12 -26 0 -43
21 -41 190 14 91 30 166 55 167 55 2 0 4 -156 5 -346 3 -311 5 -348 20 -357
12 -8 21 -7 32 2 14 12 16 59 16 392 0 364 -1 379 -19 389 -11 5 -21 10 -23 9
-2 0 -84 -28 -183 -62z"/>
<path d="M14498 909 c-17 -9 -18 -39 -18 -388 0 -402 1 -408 47 -399 17 3 18
26 21 356 3 409 -7 384 115 302 184 -123 277 -294 294 -540 6 -96 15 -120 43
-120 34 0 41 31 30 132 -19 167 -64 306 -129 402 -70 102 -225 222 -324 251
-59 17 -57 17 -79 4z"/>
<path d="M15340 905 c-7 -8 -10 -23 -8 -33 3 -10 56 -94 119 -188 l114 -169 5
-189 c4 -162 7 -190 22 -199 12 -8 21 -7 32 2 14 11 16 42 16 195 l0 181 120
180 c66 99 120 187 120 196 0 22 -24 41 -43 33 -8 -3 -61 -75 -118 -160 -56
-85 -106 -157 -110 -160 -5 -3 -54 64 -110 148 -120 182 -133 194 -159 163z"/>
<path d="M18002 908 c-9 -9 -12 -77 -12 -244 l0 -232 -40 -7 c-100 -17 -187
-121 -197 -235 -5 -51 -3 -61 12 -66 24 -10 49 8 53 37 11 83 57 160 106 179
72 26 66 34 66 -95 0 -98 3 -117 16 -122 9 -3 24 -2 33 4 13 8 17 32 19 122 1
61 5 111 8 111 14 0 81 -33 97 -48 27 -24 49 -69 62 -126 13 -56 35 -77 59
-57 20 17 20 53 0 121 -22 75 -100 152 -172 170 l-52 14 0 233 c0 219 -1 233
-19 243 -24 13 -24 13 -39 -2z"/>
<path d="M2045 670 c-167 -111 -196 -134 -193 -153 2 -16 54 -56 196 -152 158
-106 196 -127 210 -119 9 6 17 21 17 33 0 16 -37 46 -164 130 l-163 109 166
111 c170 114 191 137 147 161 -17 8 -51 -10 -216 -120z"/>
<path d="M6695 724 c-13 -13 -15 -58 -15 -298 0 -206 3 -285 12 -294 20 -20
48 -14 58 14 13 33 13 540 0 563 -14 26 -37 33 -55 15z"/>
</g>
</svg>
