<?xml version="1.0" standalone="no"?>
<!DOCTYPE svg PUBLIC "-//W3C//DTD SVG 20010904//EN"
 "http://www.w3.org/TR/2001/REC-SVG-20010904/DTD/svg10.dtd">
<svg version="1.0" xmlns="http://www.w3.org/2000/svg"
 width="553.000000pt" height="60.000000pt" viewBox="0 0 553.000000 60.000000"
 preserveAspectRatio="xMidYMid meet">

<g transform="translate(0.000000,60.000000) scale(0.100000,-0.100000)"
fill="#000000" stroke="none">
<path d="M2615 540 c-4 -6 -6 -60 -6 -119 1 -82 -2 -111 -12 -120 -19 -15 -41
-6 -57 25 -7 13 -18 24 -24 24 -12 0 -76 101 -76 119 0 9 -40 37 -40 29 -3
-64 -13 -342 -13 -365 0 -18 3 -36 6 -40 4 -3 43 30 87 75 45 47 88 82 99 82
22 0 30 -39 32 -162 1 -43 6 -78 11 -78 6 0 8 43 6 105 -1 58 0 105 4 105 26
0 149 -103 161 -134 15 -37 26 -10 33 82 8 92 7 312 -2 321 -9 10 -58 -26
-116 -86 -35 -34 -67 -63 -71 -63 -4 0 -7 45 -6 100 2 99 -2 122 -16 100z
m195 -139 c0 -57 -6 -61 -88 -61 l-56 0 60 55 c32 30 65 55 72 55 8 0 12 -16
12 -49z m-361 -7 c26 -44 26 -44 -4 -44 -22 0 -25 4 -25 40 0 22 2 40 4 40 2
0 13 -16 25 -36z m65 -83 c15 -17 15 -19 1 -25 -9 -3 -34 -6 -56 -6 -32 0 -39
4 -39 19 0 15 8 21 33 24 17 2 35 5 38 5 3 1 14 -6 23 -17z m294 -13 c4 -31 8
-30 -110 -32 -44 -1 -69 3 -72 11 -8 19 15 31 79 41 87 14 99 12 103 -20z
m-271 -40 c-2 -9 -24 -13 -60 -13 -67 0 -76 12 -14 18 23 2 50 4 60 5 11 1 17
-3 14 -10z m273 -30 c0 -49 -11 -69 -34 -62 -20 6 -126 74 -126 81 0 1 36 3
80 3 76 0 80 -1 80 -22z m-345 -43 c-22 -19 -43 -35 -47 -35 -10 0 -10 54 -1
63 3 4 25 7 47 7 l41 -1 -40 -34z"/>
<path d="M4425 526 c-58 -27 -68 -37 -105 -109 -22 -41 -35 -53 -61 -60 -58
-15 -65 -28 -50 -98 7 -34 16 -69 21 -78 5 -9 20 -42 35 -74 22 -49 28 -56 43
-48 25 13 116 184 137 256 9 33 28 95 41 138 33 106 27 114 -61 73z m28 -98
c-14 -51 -29 -110 -34 -130 -13 -56 -101 -199 -119 -196 -9 2 -27 40 -48 102
-36 109 -33 126 20 126 16 0 38 5 50 11 11 6 34 12 51 12 17 1 32 7 34 14 3 8
-8 10 -36 6 -46 -6 -50 1 -26 47 16 31 66 73 105 89 14 5 26 10 26 10 1 1 -9
-41 -23 -91z"/>
<path d="M5143 533 c-8 -21 -8 -71 -2 -313 5 -171 9 -200 31 -200 7 0 8 14 3
43 -12 58 -11 212 0 211 5 -1 14 -9 20 -18 7 -12 6 -19 -5 -26 -8 -5 -11 -12
-7 -16 3 -4 13 -1 21 5 12 10 21 8 45 -10 17 -13 31 -24 31 -25 0 -1 -22 -16
-50 -34 -27 -18 -50 -36 -50 -41 0 -14 7 -11 60 27 49 35 51 36 75 20 14 -9
42 -39 61 -66 26 -36 43 -50 60 -50 13 0 24 3 24 8 0 4 -29 36 -65 71 -36 36
-65 67 -65 70 0 9 115 81 128 81 13 0 14 -5 12 -140 -1 -53 2 -103 6 -113 8
-21 30 -22 38 -2 3 9 0 15 -9 15 -21 0 -18 37 5 67 11 14 20 30 20 36 0 6 -6
2 -14 -9 -26 -34 -30 9 -6 58 12 23 16 37 9 31 -23 -22 -29 -14 -29 36 0 33 6
56 20 74 11 14 20 29 20 33 0 4 -9 -1 -20 -11 -26 -24 -26 -6 1 46 11 23 18
43 16 46 -3 2 -8 -5 -12 -16 -13 -42 -25 -19 -25 48 0 39 -4 73 -10 76 -11 7
-13 -21 -10 -160 l1 -90 -33 33 -33 33 25 19 c30 23 10 27 -25 4 -23 -15 -26
-14 -67 24 l-42 40 59 30 c63 32 106 61 91 62 -5 0 -44 -19 -87 -42 l-79 -42
-42 40 c-24 21 -44 42 -46 47 -7 14 -43 7 -49 -10z m76 -52 l44 -37 -34 -20
c-69 -41 -69 -41 -69 31 0 36 3 65 8 65 4 0 27 -18 51 -39z m124 -108 c17 -19
16 -21 -44 -62 l-61 -42 -39 18 c-34 16 -39 22 -37 47 3 24 13 36 57 62 54 33
55 33 80 15 14 -11 34 -28 44 -38z m68 -50 c16 -10 29 -22 29 -28 0 -13 -100
-85 -119 -85 -18 0 -61 31 -61 44 1 11 97 83 113 85 5 1 22 -7 38 -16z"/>
<path d="M385 520 c-4 -6 -30 -28 -59 -50 -61 -45 -152 -75 -197 -65 -74 16
-79 -50 -11 -157 85 -136 107 -167 117 -168 6 0 16 15 23 33 25 63 80 233 87
265 4 18 22 55 41 83 19 28 34 55 34 60 0 12 -27 11 -35 -1z m-45 -86 c0 -16
-64 -48 -83 -41 -7 2 5 12 26 22 20 9 40 21 43 26 8 14 14 11 14 -7z m-115
-53 c-11 -9 -94 -31 -121 -31 -13 0 -14 3 -4 14 6 8 33 17 58 19 26 2 54 4 62
5 8 1 10 -1 5 -7z m95 -14 c0 -8 -14 -52 -31 -98 -17 -46 -35 -96 -41 -111 -5
-16 -15 -28 -21 -28 -21 1 -117 150 -117 180 0 5 26 16 58 25 31 9 75 23 97
30 51 18 55 18 55 2z"/>
<path d="M595 472 c-17 -15 -44 -37 -60 -49 -16 -12 -27 -25 -23 -28 4 -4 26
7 50 24 53 39 73 39 93 1 17 -33 19 -26 -52 -155 -22 -39 -73 -150 -73 -159 0
-5 9 -6 21 -3 11 3 32 0 47 -7 44 -20 92 -50 92 -58 0 -27 22 3 55 74 20 45
48 96 60 113 12 16 41 65 64 108 45 85 40 103 -18 73 -41 -21 -51 -20 -51 7 0
35 -11 67 -24 67 -6 0 -24 -16 -39 -35 -15 -19 -34 -35 -41 -35 -7 0 -21 19
-32 42 -10 23 -23 43 -29 45 -5 1 -24 -10 -40 -25z m186 -122 c6 0 23 7 39 15
29 15 30 14 30 -5 0 -27 -49 -100 -66 -100 -15 0 -74 87 -74 109 0 8 12 28 28
44 l27 29 3 -46 c2 -25 8 -46 13 -46z m-52 -64 c24 -36 31 -57 27 -76 -6 -31
-54 -140 -61 -140 -12 0 -115 74 -115 82 0 15 58 137 81 169 24 34 22 34 68
-35z"/>
<path d="M1160 478 c0 -12 6 -48 12 -81 12 -59 12 -59 -16 -82 -15 -12 -46
-28 -67 -35 -37 -13 -41 -17 -60 -81 -21 -69 -22 -130 -3 -136 7 -2 13 22 17
66 3 39 10 78 15 88 6 10 34 31 64 47 93 49 97 57 78 138 -5 24 -12 55 -15 71
-6 32 -25 36 -25 5z"/>
<path d="M2225 428 c4 -40 11 -77 16 -82 15 -17 22 22 14 89 -5 49 -10 65 -22
65 -13 0 -14 -11 -8 -72z"/>
<path d="M1260 481 c0 -5 6 -24 14 -42 7 -19 16 -53 20 -76 7 -47 7 -47 -78
-113 -25 -19 -48 -45 -52 -58 -7 -25 13 -109 28 -118 18 -11 20 5 7 57 l-14
52 69 62 69 63 -7 63 c-8 64 -29 119 -46 119 -6 0 -10 -4 -10 -9z"/>
<path d="M1378 484 c-8 -7 11 -74 28 -99 8 -11 14 -36 14 -56 0 -34 -4 -40
-52 -69 -29 -18 -56 -38 -60 -44 -14 -21 -7 -71 16 -115 26 -51 43 -41 21 13
-27 64 -21 90 28 115 74 38 95 107 52 175 -7 12 -16 36 -20 54 -6 30 -15 39
-27 26z"/>
<path d="M1657 475 c-3 -9 -2 -58 2 -328 1 -42 5 -57 14 -54 8 3 11 25 9 80
-2 41 -1 93 2 114 l7 38 119 0 c65 0 122 -3 126 -7 4 -4 2 -38 -3 -75 -12 -76
-7 -146 10 -140 7 2 13 40 15 98 1 52 4 103 5 114 3 38 -15 155 -27 163 -17
11 -275 9 -279 -3z m265 -33 c3 -4 8 -25 10 -47 l3 -39 -100 -3 c-55 -2 -110
-5 -122 -7 -13 -2 -23 -3 -24 -2 0 0 -2 20 -5 44 -10 71 -10 71 118 65 62 -3
116 -8 120 -11z"/>
<path d="M3613 413 c-70 -91 -78 -106 -87 -156 -8 -43 9 -143 29 -171 20 -27
38 -10 19 19 -17 26 -32 135 -18 135 5 0 18 -7 28 -15 18 -13 18 -16 2 -40
-13 -20 -14 -25 -2 -25 7 0 19 7 26 15 9 11 24 13 54 9 38 -5 40 -4 22 10 -10
8 -24 17 -30 19 -7 2 -4 13 7 31 10 14 22 24 27 21 5 -3 18 -31 30 -63 16 -42
20 -70 16 -105 -6 -57 13 -61 27 -6 11 41 -1 85 -50 187 -30 63 -35 81 -30
125 2 29 8 60 12 70 5 11 3 17 -7 17 -8 0 -42 -35 -75 -77z m46 -63 c9 -42 8
-56 -5 -81 -8 -17 -22 -33 -30 -36 -16 -6 -64 33 -64 52 0 13 72 114 82 115 3
0 11 -23 17 -50z"/>
<path d="M4823 457 c-15 -13 -50 -38 -78 -57 -125 -82 -164 -159 -124 -244 11
-25 27 -50 35 -57 8 -6 14 -18 14 -25 0 -18 21 -18 45 -1 16 12 16 18 7 47 -7
18 -12 41 -12 51 0 20 52 84 82 100 16 8 21 5 33 -23 9 -18 25 -45 36 -60 15
-18 22 -42 23 -75 1 -46 4 -49 36 -44 23 3 43 67 43 140 1 68 -4 86 -42 174
-24 53 -49 97 -56 97 -8 0 -26 -10 -42 -23z m63 -50 c27 -50 63 -164 59 -184
-2 -10 -7 -39 -10 -65 -7 -56 -20 -62 -29 -15 -4 17 -20 52 -37 77 -17 25 -33
57 -36 73 -3 15 -9 27 -14 27 -5 0 -36 -24 -68 -52 -56 -50 -59 -56 -60 -100
-1 -52 -9 -58 -35 -29 -22 24 -31 88 -17 123 13 34 206 191 224 181 4 -2 14
-18 23 -36z"/>
<path d="M5516 463 c-6 -14 -5 -15 5 -6 7 7 10 15 7 18 -3 3 -9 -2 -12 -12z"/>
<path d="M3966 411 c2 -25 -1 -41 -7 -41 -7 0 -8 -7 -4 -17 18 -44 24 -92 15
-123 -10 -36 -2 -120 11 -120 5 0 9 9 9 20 0 12 7 31 15 44 13 19 13 25 2 34
-13 11 -14 92 -1 145 4 16 2 27 -4 27 -6 0 -12 14 -14 32 -2 17 -8 33 -15 35
-8 3 -10 -9 -7 -36z"/>
<path d="M3268 369 c-31 -4 -73 -15 -92 -23 -20 -8 -72 -25 -115 -36 -119 -33
-116 -58 11 -90 40 -10 107 -28 148 -40 95 -27 170 -37 170 -21 0 6 -4 30 -10
53 -5 24 -15 71 -21 106 -6 34 -17 61 -23 61 -6 -1 -37 -5 -68 -10z m67 -56
c4 -16 10 -52 14 -81 l8 -54 -45 7 c-71 11 -92 24 -93 59 0 17 -4 40 -8 51
-13 31 6 45 64 45 49 0 53 -2 60 -27z m-145 -29 c6 -14 10 -36 10 -49 0 -22
-2 -23 -37 -13 -100 26 -143 40 -143 46 0 9 102 39 138 41 16 1 25 -7 32 -25z"/>
<path d="M2236 160 c-3 -39 -7 -76 -9 -83 -1 -7 5 -12 13 -12 12 0 16 17 18
83 3 100 -13 109 -22 12z"/>
</g>
</svg>
