<?xml version="1.0" standalone="no"?>
<!DOCTYPE svg PUBLIC "-//W3C//DTD SVG 20010904//EN"
 "http://www.w3.org/TR/2001/REC-SVG-20010904/DTD/svg10.dtd">
<svg version="1.0" xmlns="http://www.w3.org/2000/svg"
 width="1800.000000pt" height="86.000000pt" viewBox="0 0 1800.000000 86.000000"
 preserveAspectRatio="xMidYMid meet">

<g transform="translate(0.000000,86.000000) scale(0.100000,-0.100000)"
fill="#000000" stroke="none">
<path d="M270 585 l0 -115 -59 -29 c-32 -17 -61 -37 -64 -45 -10 -26 23 -26
73 -1 l49 25 3 -127 c3 -120 4 -128 23 -128 19 0 20 8 23 268 l2 267 -25 0
-25 0 0 -115z"/>
<path d="M805 687 c-3 -7 -4 -127 -3 -267 l3 -255 24 -3 c45 -7 111 9 140 33
57 49 58 149 1 206 l-27 28 27 26 c74 71 46 208 -48 235 -51 14 -112 13 -117
-3z m135 -62 c19 -20 25 -36 25 -70 0 -54 -25 -83 -78 -92 l-37 -6 0 103 0
103 33 -7 c17 -4 43 -18 57 -31z m-21 -240 c40 -20 57 -66 43 -114 -12 -38
-37 -58 -82 -63 -25 -3 -25 -3 -28 95 -3 93 -2 97 18 97 12 0 34 -7 49 -15z"/>
<path d="M1487 693 c-4 -3 -7 -78 -7 -165 0 -135 2 -158 15 -158 25 0 152 68
158 84 10 25 -29 29 -72 6 -22 -11 -43 -20 -46 -20 -3 0 -5 58 -5 130 0 119
-1 130 -18 130 -10 0 -22 -3 -25 -7z"/>
<path d="M2146 640 c-42 -33 -76 -66 -76 -74 0 -28 26 -23 75 15 l50 38 3 -64
c2 -47 -2 -72 -13 -87 -19 -28 -19 -52 0 -71 10 -11 15 -44 17 -122 3 -103 4
-108 26 -111 22 -4 22 -2 22 105 0 84 3 111 15 121 8 7 15 25 15 40 0 15 -7
33 -15 40 -12 10 -15 37 -15 121 0 88 -3 109 -14 109 -8 0 -49 -27 -90 -60z"/>
<path d="M2740 430 l0 -271 22 3 c20 3 22 8 20 46 -3 33 0 43 15 49 47 17 102
66 123 108 42 87 1 184 -98 227 -42 19 -43 21 -40 61 2 37 0 42 -20 45 l-22 3
0 -271z m111 81 c43 -43 50 -80 24 -131 -14 -27 -73 -80 -88 -80 -4 0 -7 56
-7 125 0 145 6 152 71 86z"/>
<path d="M2817 454 c-12 -12 -8 -42 6 -47 21 -8 39 8 35 29 -3 19 -29 30 -41
18z"/>
<path d="M3390 599 c0 -86 -3 -105 -20 -126 -25 -32 -25 -55 0 -78 16 -15 20
-33 22 -124 3 -98 4 -106 23 -106 19 0 20 8 23 106 2 91 6 109 22 124 25 23
25 46 0 78 -17 21 -20 40 -20 126 l0 101 -25 0 -25 0 0 -101z"/>
<path d="M3930 430 l0 -271 23 3 c21 3 22 7 25 115 l3 112 60 33 c110 58 209
167 225 246 5 27 3 32 -12 32 -13 0 -26 -16 -42 -51 -29 -62 -116 -151 -182
-184 l-50 -25 0 34 c0 26 5 36 21 41 44 14 159 138 159 172 0 24 -39 14 -54
-15 -17 -33 -100 -112 -118 -112 -9 0 -13 19 -13 67 0 63 -2 68 -22 71 l-23 3
0 -271z"/>
<path d="M4730 430 c0 -263 0 -270 20 -270 19 0 20 7 20 145 l0 145 49 24 c26
14 62 36 79 50 36 31 88 110 97 149 6 23 4 27 -14 27 -14 0 -25 -11 -35 -33
-25 -61 -144 -175 -167 -161 -5 3 -9 48 -9 100 0 87 -1 94 -20 94 -20 0 -20
-7 -20 -270z"/>
<path d="M5537 693 c-4 -3 -7 -53 -7 -110 l0 -104 -44 31 c-43 31 -66 33 -66
5 0 -8 20 -28 45 -46 50 -36 49 -43 -11 -80 -36 -22 -47 -59 -17 -59 9 0 31
11 49 25 18 14 35 25 38 25 3 0 7 -48 8 -107 3 -103 4 -108 26 -111 22 -3 22
-2 22 107 0 61 3 111 6 111 3 0 19 -11 36 -25 16 -14 38 -25 49 -25 34 0 21
34 -26 65 -24 17 -45 33 -45 37 0 4 20 21 45 38 27 19 45 39 45 50 0 29 -26
25 -71 -11 l-39 -31 0 111 c0 101 -2 111 -18 111 -10 0 -22 -3 -25 -7z"/>
<path d="M6150 430 l0 -271 23 3 22 3 0 265 0 265 -22 3 -23 3 0 -271z"/>
<path d="M6685 687 c-3 -7 -4 -127 -3 -267 3 -247 4 -255 23 -255 19 0 20 8
23 145 l3 145 49 24 c61 30 125 94 155 157 25 52 24 64 -4 64 -10 0 -22 -13
-29 -34 -15 -42 -95 -128 -139 -150 l-33 -17 0 101 c0 94 -1 100 -20 100 -11
0 -23 -6 -25 -13z"/>
<path d="M7410 429 c0 -267 0 -270 20 -267 20 3 21 9 21 231 0 125 3 227 6
227 4 0 29 -17 57 -38 50 -38 76 -44 76 -16 0 16 -145 134 -166 134 -12 0 -14
-42 -14 -271z"/>
<path d="M8020 673 c0 -35 31 -102 56 -125 11 -10 36 -24 57 -33 l37 -15 0
-170 c0 -163 1 -170 20 -170 19 0 20 8 22 172 l3 171 30 10 c64 20 115 93 115
165 0 18 -5 23 -22 20 -17 -2 -24 -12 -31 -45 -9 -45 -54 -103 -81 -103 -13 0
-16 13 -16 75 0 68 -2 75 -20 75 -18 0 -20 -7 -20 -75 0 -41 -4 -75 -9 -75
-29 0 -71 59 -95 133 -3 9 -15 17 -26 17 -15 0 -20 -6 -20 -27z"/>
<path d="M8830 431 c0 -270 0 -271 21 -268 20 3 21 8 20 130 -1 70 1 127 4
127 3 0 23 -9 45 -20 47 -24 80 -26 80 -5 0 9 -28 29 -66 47 l-65 33 2 110 c2
105 1 110 -20 113 -21 3 -21 3 -21 -267z"/>
<path d="M9540 610 l0 -90 -59 -29 c-32 -17 -61 -37 -65 -46 -10 -28 25 -30
76 -3 l48 26 0 -27 c0 -23 -9 -31 -60 -56 -41 -19 -60 -34 -60 -47 0 -24 30
-23 80 2 l39 20 3 -97 c3 -90 5 -98 23 -98 19 0 20 8 23 268 l2 267 -25 0
c-25 0 -25 -1 -25 -90z"/>
<path d="M10080 430 l0 -269 63 3 c34 1 72 9 85 17 27 17 62 85 62 120 -1 34
-34 105 -57 118 -17 10 -17 11 3 25 32 23 57 93 49 135 -15 77 -73 121 -160
121 l-45 0 0 -270z m105 215 c38 -15 55 -46 55 -96 0 -42 -48 -89 -89 -89
l-31 0 0 93 c0 116 2 119 65 92z m33 -281 c27 -31 30 -92 5 -123 -17 -21 -86
-44 -97 -33 -9 8 -7 178 1 186 14 14 68 -4 91 -30z"/>
<path d="M10162 581 c-20 -12 -10 -46 14 -49 25 -4 40 24 23 44 -13 16 -19 17
-37 5z"/>
<path d="M10154 315 c-8 -21 2 -45 19 -45 8 0 20 7 27 15 10 12 10 18 0 30 -7
8 -19 15 -27 15 -7 0 -16 -7 -19 -15z"/>
<path d="M10760 440 c0 -143 -1 -263 -2 -267 -2 -3 7 -8 20 -9 22 -4 22 -4 22
141 l0 145 50 25 c64 33 122 91 155 154 30 61 31 71 4 71 -14 0 -25 -11 -35
-36 -20 -47 -89 -121 -136 -145 l-38 -19 0 100 c0 93 -1 100 -20 100 -19 0
-20 -7 -20 -260z"/>
<path d="M11482 433 c3 -260 4 -268 23 -268 18 0 20 8 25 108 l5 107 60 -107
c58 -102 76 -121 107 -106 3 2 -20 49 -53 105 -58 100 -68 128 -50 128 19 0
71 94 71 127 0 44 -32 106 -67 131 -24 17 -92 42 -116 42 -4 0 -6 -120 -5
-267z m95 185 c55 -61 57 -112 7 -168 -20 -22 -40 -40 -45 -40 -5 0 -9 52 -9
115 0 124 7 137 47 93z"/>
<path d="M12130 521 c0 -154 2 -181 15 -181 8 0 45 25 82 55 38 30 70 55 73
55 3 0 5 -64 5 -142 0 -141 0 -143 23 -146 l22 -3 0 185 c0 163 -2 186 -16
186 -9 0 -46 -25 -82 -55 -37 -30 -69 -55 -72 -55 -3 0 -6 62 -6 138 -1 133
-1 137 -22 140 -22 3 -22 2 -22 -177z"/>
<path d="M12865 644 c-88 -70 -100 -86 -71 -97 8 -3 37 12 64 34 28 21 53 39
56 39 3 0 6 -104 6 -231 l0 -230 23 3 22 3 0 265 c0 227 -2 265 -15 267 -8 2
-46 -22 -85 -53z"/>
<path d="M13450 429 l0 -270 23 3 c18 2 23 11 27 45 4 36 11 45 55 75 74 49
98 90 93 159 -5 70 -33 110 -98 141 -49 23 -49 23 -50 71 0 43 -2 47 -25 47
l-25 0 0 -271z m97 101 c39 -23 55 -52 55 -96 0 -43 -28 -90 -69 -116 l-33
-20 0 126 c0 69 3 126 8 126 4 0 21 -9 39 -20z"/>
<path d="M14105 687 c-3 -7 -4 -127 -3 -267 l3 -255 23 -3 22 -3 0 245 c0 216
2 246 15 246 55 0 115 -80 133 -177 5 -28 9 -109 10 -180 0 -122 1 -128 21
-131 21 -3 21 0 21 160 0 90 -5 180 -10 200 -17 61 -71 131 -120 156 -49 24
-108 29 -115 9z"/>
<path d="M14840 430 l0 -271 23 3 c21 3 22 7 25 115 l3 112 58 31 c85 45 162
119 199 188 37 69 40 92 13 92 -14 0 -27 -16 -44 -53 -29 -63 -106 -143 -175
-180 l-50 -27 -4 31 c-4 26 0 33 25 45 45 24 117 94 138 136 24 46 24 48 -1
48 -11 0 -26 -12 -34 -29 -17 -32 -102 -111 -120 -111 -7 0 -11 25 -11 67 0
63 -2 68 -22 71 l-23 3 0 -271z"/>
<path d="M15640 440 c0 -143 -1 -263 -2 -267 -2 -5 7 -9 20 -11 l22 -3 0 245
0 246 26 0 c41 0 90 -59 114 -136 16 -54 20 -94 20 -210 0 -137 1 -144 20
-144 19 0 20 7 20 173 0 169 -1 173 -29 232 -44 93 -101 135 -183 135 l-28 0
0 -260z"/>
<path d="M16370 535 c0 -110 4 -165 11 -165 27 0 159 70 159 85 0 26 -25 28
-69 6 -22 -12 -43 -21 -46 -21 -3 0 -5 58 -5 130 l0 130 -25 0 -25 0 0 -165z"/>
<path d="M17067 693 c-4 -3 -7 -60 -7 -124 l0 -119 -50 -25 c-51 -26 -67 -55
-30 -55 12 0 34 7 50 15 l29 15 3 -116 c3 -113 4 -117 26 -120 22 -4 22 -3 22
126 l0 130 49 24 c27 14 51 32 55 41 9 24 -21 30 -60 11 -19 -9 -37 -16 -39
-16 -3 0 -5 50 -5 110 0 100 -2 110 -18 110 -10 0 -22 -3 -25 -7z"/>
<path d="M17740 601 l0 -101 -49 -25 c-56 -28 -68 -42 -52 -58 8 -8 23 -5 56
11 l45 22 0 -25 c0 -20 -10 -30 -50 -50 -49 -25 -70 -48 -56 -62 4 -4 21 -1
39 6 71 28 67 33 67 -69 0 -88 1 -91 22 -88 20 3 21 8 20 106 l-1 102 50 25
c71 36 85 84 16 56 -61 -24 -67 -25 -67 -3 0 15 15 29 52 49 57 30 76 63 36
63 -13 -1 -34 -7 -48 -15 -14 -8 -28 -14 -32 -15 -4 0 -6 37 -6 83 1 76 -1 82
-21 85 -20 3 -21 0 -21 -97z"/>
<path d="M14906 664 c-4 -10 -2 -22 3 -27 15 -15 46 -3 46 18 0 26 -40 33 -49
9z"/>
<path d="M4812 648 c-26 -26 1 -65 38 -53 16 5 20 14 18 33 -3 30 -35 41 -56
20z"/>
<path d="M15729 424 c-17 -21 0 -49 32 -49 18 0 25 6 27 24 6 38 -34 55 -59
25z"/>
</g>
</svg>
