<svg viewBox="0 0 170 8" style="background-color:#ffffff00" xmlns="http://www.w3.org/2000/svg">
  <!-- oracle bone "鼠" 'rat' -->
  <g transform="translate(1,0) scale(0.18,0.18)">
    <path d="M 10 50 c 0 -1.58 -0.72 -5.29 -1.59 -8.23 -1.50 -5.04 -1.46 -6.91 0.24 -13.01 0.62 -2.22 0.52 -2.35 -0.93 -1.16 -1.42 1.17 -1.72 1.00 -2.29 -1.26 -1.33 -5.30 0.40 -11.01 4.59 -15.09 2.17 -2.12 4.24 -3.56 4.61 -3.19 0.36 0.36 0.11 1.33 -0.57 2.14 -1.80 2.17 -0.37 3.68 2.74 2.90 2.66 -0.67 2.66 -0.66 0.95 1.75 -4.38 6.14 -4.88 5.21 5.26 9.68 2.49 1.10 2.49 1.10 -0.69 1.17 -3.73 0.08 -4.02 0.43 -4.90 5.89 -0.62 3.88 -0.48 4.20 2.21 5.27 3.80 1.51 1.27 2.41 -2.80 0.99 -1.72 -0.60 -4.14 -1.09 -5.38 -1.09 -2.22 0 -2.23 0.08 -0.85 4.66 1.64 5.46 1.81 9.97 0.40 10.84 -0.58 0.36 -1 -0.60 -1 -2.26 z
             m 6.39 -20.30 c 1.10 -6.87 -1.88 -8.33 -4.74 -2.33 -1.88 3.95 -0.99 6.39 2.34 6.39 1.27 0 1.93 -1.11 2.40 -4.06 z
             m -6.64 -7.09 c 0.79 -0.79 0.84 -1.73 0.16 -3 -1.49 -2.78 -2.92 -2.22 -2.92 1.15 0 3.17 0.85 3.75 2.75 1.85 z
             m 3.25 -6.29 c 0 -0.79 -0.45 -1.72 -1 -2.06 -0.55 -0.34 -1 0.31 -1 1.44 s 0.45 2.06 1 2.06 1 -0.65 1 -1.44 z
             M 0 10 c -0.74 -2.35 0.21 -6.01 1.56 -6.01 1.21 0 1.22 6.71 0.01 7.46 -0.51 0.32 -1.22 -0.33 -1.57 -1.44 z
             M 12 3 c -0.44 -1.28 -0.54 -2.59 -0.21 -2.92 1.04 -1.04 1.77 0.49 1.39 2.91l -0.37 2.34 -0.80 -2.33 z
             M 22 10 c -0.42 -0.68 -0.46 -2.43 -0.09 -3.91 0.57 -2.26 0.82 -2.42 1.59 -1.03 1.12 2.01 -0.35 6.82 -1.51 4.94 z" />
  </g>
  <!-- oracle bone "虎" hǔ 'tiger' -->
  <g transform="translate(12,0) scale(0.08,0.08)">
    <path d="m 0,110 c -0.51,-0.66 -1.94,-6.14 -3.19,-12.19 -2.94,-14.19 -2.70,-13.50 -4.64,-13.50 -0.92,0 -6.11,2.35 -11.53,5.22 -9.82,5.20 -9.86,5.24 -9.86,9 0,3.03 -0.37,3.78 -1.88,3.78 -1.08,0 -2.12,-0.91 -2.44,-2.12 -0.43,-1.64 -1.08,-1.99 -2.88,-1.54 -3.52,0.88 -5.37,-0.62 -3.31,-2.69 0.91,-0.91 2.21,-1.32 2.69,-1.65 1.30,-0.88 1.65,-1.88 0.37,-4.49 -1.62,-3.29 -0.49,-3.82 0.73,-4.13 1.83,-0.47 2.99,1.59 3.93,2.39 2.02,1.74 5.51,1.09 8.90,-1.66 2.24,-1.81 2.30,-2.15 1.13,-6.53 -0.68,-2.54 -1.23,-7.25 -1.23,-10.48 0,-3.88 -0.49,-6.27 -1.44,-7.06 -0.79,-0.66 -1.58,-2.14 -1.75,-3.29 -0.59,-4.00 -2.81,-3.18 -2.81,1.04 0,5.27 -2.28,7.31 -4.76,4.26 -1.49,-1.84 -2.19,-2.02 -4.43,-1.17 -3.54,1.35 -5.52,-0.69 -3.79,-3.92 0.64,-1.19 2.41,-2.83 1.94,-3.77 -1.66,-3.34 0.47,-4.50 5.54,-3.74 4.80,0.72 7.42,-0.48 13.75,-6.30 4.81,-4.42 3.12,-6.96 -2.07,-3.12 -1.51,1.11 -4.42,2.30 -6.46,2.63 -3.68,0.60 -3.72,0.57 -3.70,-2.78 0.02,-4.87 1.01,-7.88 2.60,-7.88 0.76,0 1.38,0.62 1.38,1.38 0,0.76 0.65,1.92 1.45,2.58 1.17,0.97 2.46,0.65 6.52,-1.63 5.66,-3.17 7.39,-6.88 6.83,-14.62 -0.26,-3.56 -0.72,-4.32 -3.15,-5.17 -2.31,-0.81 -3.09,-0.67 -4.11,0.73 -0.69,0.95 -1.78,1.73 -2.40,1.73 -1.36,0 -1.53,-5.19 -0.22,-6.55 0.50,-0.52 1.07,-2.04 1.25,-3.37 0.45,-3.28 2.62,-3.79 3.72,-0.87 1.10,2.89 2.66,4.18 6.68,5.53 2.91,0.98 3.34,0.75 8.28,-4.36 7.75,-8.01 9.08,-7.50 10.72,4.12 0.39,2.75 1.56,6.70 2.61,8.79 l 1.91,3.79 -3.51,1.47
             c -2.02,0.84 -4.22,1.47 -5.09,1.47 -0.87,0 -2.91,0.69 -4.53,1.53 -3.22,1.67 -3.88,4.73 -1.59,7.40 2.49,2.90 3.64,8.30 3.64,17.11 0,5.74 0.55,10.04 1.60,12.56 1.84,4.40 1.28,11.82 -1.27,16.73 -1.92,3.71 -1.37,11.45 1.08,15.19 2.14,3.27 3.52,2.35 7.75,-5.15 2.56,-4.53 5.84,-8.54 5.84,-7.14 0,3.30 -10.19,22.25 -12.43,23.11 -0.79,0.30 -1.84,0.01 -2.35,-0.64 z
             m -5.71,-30.59 c 3.71,-1.64 4.57,-2.48 4.31,-4.22 -0.25,-1.68 -1.46,-2.46 -5.32,-3.45 -4.84,-1.24 -5.09,-1.19 -7.75,1.33 -1.96,1.86 -2.75,3.60 -2.75,6.05 0,3.37 0.08,3.43 3.44,2.88 1.89,-0.31 5.53,-1.48 8.07,-2.61 z
             m -8.34,-11.75 c 1.55,-1.41 2.42,-1.48 5.70,-0.50 5.15,1.54 5.32,1.51 4.95,-1.06 -0.18,-1.22 -1.55,-2.91 -3.06,-3.75 -2.56,-1.43 -3.05,-1.37 -7.25,0.86 -2.87,1.52 -4.51,3.06 -4.51,4.25 0,2.31 1.76,2.39 4.17,0.20 z
             m 3.56,-9.34 c 5.70,0 7.63,-1.66 5.26,-4.51 -2.18,-2.62 -8.26,-1.86 -11.41,1.43 -1.59,1.66 -2.48,3.42 -2.07,4.09 0.52,0.84 1.03,0.86 1.81,0.08 0.60,-0.60 3.49,-1.09 6.42,-1.09 z
             m -7.80,-6.41 c 0.84,-1.01 0.86,-1.60 0.08,-2.09 -1.33,-0.82 -4.20,1.37 -3.44,2.61 0.79,1.28 2.02,1.09 3.36,-0.52 z
             m 14.07,-4.87 c 0,-2.95 -2.66,-6.72 -4.74,-6.72 -1.87,0 -6.26,3.81 -6.26,5.44 0,1.55 3.94,3.30 7.75,3.44 2.75,0.10 3.25,-0.23 3.25,-2.15 z
             m 0.88,-18.90 c 1.99,-1.20 3.79,-2.31 4.01,-2.48 1.08,-0.83 -2.51,-3.38 -5.58,-3.95 -4.14,-0.78 -5.97,0.64 -6.92,5.36 -0.60,3.02 -0.47,3.24 2.11,3.24 1.52,0 4.38,-0.98 6.38,-2.17 z m 5.54,-8.43 c 2.25,-0.86 1.98,-5.73 -0.46,-7.93 -1.99,-1.80 -2.10,-1.78 -4.75,0.91 l -2.71,2.75 3,2.43 c 1.65,1.34 3.08,2.44 3.17,2.44 0.09,0.00 0.88,-0.27 1.75,-0.60 z" />
  </g>
  <!-- oracle bone "馬" 'horse' -->
  <g transform="translate(16,0) scale(0.17,0.17)">
    <path d="M 18 53 c -0.42 -0.68 -1.63 -0.89 -2.89 -0.51 -1.83 0.56 -1.67 0.13 1.08 -2.76 3.59 -3.76 4.64 -9.82 1.71 -9.82 -2.78 0 -9.68 4.12 -10.19 6.08 -0.70 2.68 -1.93 2.40 -2.69 -0.62 -0.83 -3.29 0.09 -4.69 2.55 -3.91 3.37 1.07 4.87 -1.26 4.87 -7.61 0 -3.20 -0.45 -6.09 -0.99 -6.43 -0.55 -0.34 -2.52 0.55 -4.38 1.97 -2.92 2.23 -3.47 2.36 -4.01 0.97 -0.87 -2.26 -0.80 -2.45 0.84 -2.45 2.66 0 14.54 -6.23 14.54 -7.63 0 -1.79 -0.31 -1.75 -4.74 0.63 -2.05 1.10 -5.22 2 -7.03 2 -3.01 0 -3.28 -0.25 -3.01 -2.75 0.23 -2.17 -0.13 -2.75 -1.70 -2.75 -1.09 -0.00 -2.12 -0.70 -2.28 -1.55 -0.39 -2.04 5.69 -5.28 13.12 -6.98 5.13 -1.18 6.17 -1.83 8.38 -5.34 2.38 -3.77 2.60 -3.89 3.90 -2.12 1.58 2.15 1.13 4.20 -2.24 10.36 -2.85 5.20 -3.02 7.11 -0.65 7.16 0.96 0.02 2.88 0.68 4.25 1.46
             l 2.50 1.43 -2.75 0.04 c -3.18 0.04 -3.46 0.78 -1 2.64 1.62 1.23 1.58 1.33 -0.50 1.36 -2.32 0.03 -3.01 1.44 -1.25 2.53 1.61 0.99 1.15 2.50 -0.75 2.50 -1.54 -0.00 -1.74 1.04 -1.67 8.48 0.07 6.88 0.44 8.89 2 10.63 1.90 2.13 1.90 2.14 -0.26 1.47 -1.51 -0.47 -2.46 -0.16 -3.11 1.00 -0.66 1.18 -1.15 1.33 -1.66 0.50 z
             m 0.14 -14.88 c 0.66 -0.42 1.16 -2.32 1.11 -4.23 -0.05 -1.91 0.26 -5.16 0.69 -7.23 0.67 -3.28 0.54 -3.75 -1.11 -3.72 -3.69 0.06 -4.88 2.16 -4.82 8.47 0.03 3.30 0.15 6.34 0.25 6.75 0.24 0.96 2.34 0.94 3.88 -0.04 z
             m -5.39 -17.96 c 0.23 -0.41 0.21 -2.44 -0.05 -4.50 -0.41 -3.29 -0.80 -3.75 -3.17 -3.75 -1.48 0 -3.57 0.67 -4.64 1.48 -1.90 1.45 -1.90 1.50 0.30 2.11 1.77 0.50 2.12 1.13 1.64 3.02 -0.53 2.12 -0.26 2.39 2.45 2.39 1.68 0 3.24 -0.34 3.47 -0.75 z
             m 4.31 -5.42 c -0.16 -3.18 -2.61 -3.57 -2.61 -0.41 0 1.51 0.56 2.58 1.36 2.58 0.77 0 1.31 -0.95 1.25 -2.17 z
             m 5.00 -4.44 c 1.91 -4.56 1.24 -5.26 -2.08 -2.18 -1.71 1.58 -2.38 3.00 -1.96 4.10 1.02 2.65 2.41 1.99 4.04 -1.92 z" />
  </g>
  <!-- oracle bone "犬" quǎn 'dog' -->
  <g transform="translate(25,0) scale(0.0064,-0.0064)">
    <path d="M 0 0 c -6 -16 -8 -52 -4 -86 7 -68 2 -73 -76 -58 -62 11 -104 -2 -104 -33 0 -14 15 -25 55 -41 112 -44 129 -54 136 -81 18 -70 -40 -147 -191 -254 -91 -65 -147 -123 -139 -145 8 -19 52 -20 73 -1 15 13 41 20 69 17 17 -1 65 -109 92 -206 5 -16 15 -48 24 -70 23 -61 20 -76 -33 -134 -85 -94 -33 -115 64 -25 84 77 105 91 115 74 4 -7 2 -27 -6 -46 -26 -63 -19 -91 53 -197 66 -97 68 -99 100 -94 73 12 205 165 158 183 -12 5 -34 -10 -74 -50 -31 -31 -64 -56 -72 -56 -16 0 -59 40 -59 55 0 5 -8 17 -17 27 -12 14 -17 37 -18 77 0 46 6 69 34 120 32 61 34 69 33 160 -1 59 -7 114 -17 140 -8 24 -15 55 -15 68 0 23 -12 68 -42 158 -20 60 -30 111 -32 155
             l -1 45 56 -3 c 41 -2 59 1 69 12 20 26 4 46 -63 76 -35 16 -69 35 -75 43 -6 7 -17 49 -23 93 -6 43 -15 85 -21 92 -17 20 -38 14 -49 -15z
             m 68 -538 c 36 -101 55 -195 56 -278 1 -86 1 -88 -28 -112 -43 -35 -79 -33 -102 8 -11 17 -22 41 -25 52 -4 11 -16 45 -28 75 -12 30 -25 71 -30 90 -4 19 -11 48 -15 63 -7 25 -1 34 56 87 75 70 96 73 116 15 z" />
  </g>
  <!-- oracle bone "豕" shĭ 'swine' -->
  <g transform="translate(31,0) scale(0.088,0.088)">
    <path d="m 16 105 c 0 -1.67 2.89 -8.13 5.19 -11.61 0.91 -1.38 1.80 -3.62 1.98 -5 0.26 -2.00 -0.15 -2.57 -2.07 -2.84 -1.32 -0.19 -3.34 0.09 -4.50 0.61 -1.16 0.52 -4.58 1.75 -7.60 2.73 -3.02 0.98 -6.21 2.39 -7.08 3.14 -0.87 0.75 -3.49 1.36 -5.82 1.36 -3.50 0 -4.19 -0.31 -3.92 -1.75 0.21 -1.16 2.42 -2.43 6.55 -3.76 9.88 -3.19 9.61 -2.42 7.44 -21.35 -2.29 -20.02 -2.53 -20.40 -10.52 -16.13 -5.56 2.96 -7.66 3.15 -7.64 0.68 0.02 -1.86 19.54 -12.05 28.99 -15.14 7.42 -2.42 11.00 -4.54 11.00 -6.49 -0.00 -1.40 -10 -5.95 -14.50 -6.59 -6.34 -0.91 -8.50 -2.04 -8.50 -4.44 0 -3.03 1.53 -3.25 8.23 -1.19 3.45 1.06 8.18 2.24 10.52 2.63
             l 4.25 0.71 v -3.62 c 0 -1.99 -0.68 -5.24 -1.50 -7.21 -2.14 -5.13 -1.99 -9.35 0.35 -9.35 2.04 0 3.44 2.90 7.23 15 1.29 4.12 2.64 7.87 3.01 8.32 0.36 0.45 2.86 1.38 5.54 2.06 7.90 2.01 7.03 7.61 -1.18 7.61 h -4.32
             l -0.65 4.75 c -0.36 2.61 -1.04 6.33 -1.51 8.25 -0.47 1.93 -0.82 7.10 -0.77 11.50 0.11 10.27 -3.26 21.92 -10.79 37.25 -5.07 10.33 -7.41 13.44 -7.41 9.86 z
             m 4.83 -24.61 c 3.78 -0.98 4.59 -1.69 6.33 -5.63 1.13 -2.56 2.60 -9.56 3.39 -16.19 2.93 -24.66 2.39 -25.30 -14.81 -17.43
             l -7.91 3.62 0.56 4.07 c 0.31 2.24 1.05 9.70 1.66 16.57 1.25 14.20 2.15 17.37 4.72 16.62 0.96 -0.28 3.69 -1.01 6.08 -1.63 z" />
  </g>
  <!-- oracle bone "目" mù 'eye' -->
  <g transform="translate(37,0) scale(0.09,0.09)">
    <path d="m 0,90 c -1.01,-3.77 -0.74,-7.29 0.92,-11.93 0.86,-2.41 2.22,-9.32 3.03,-15.36 2.39,-17.99 2.71,-18.69 12.01,-26.42 4.61,-3.83 16.00,-8.10 21.63,-8.10 2.88,0 9.63,-1.47 16.11,-3.51 6.14,-1.93 14.98,-4.17 19.66,-4.98 4.67,-0.81 12.55,-2.36 17.50,-3.45 11.15,-2.45 15.09,-2.57 15.89,-0.48 1.09,2.83 0.70,3.26 -6.15,6.86 -7.30,3.84 -22.02,15.51 -23.90,18.95 -0.63,1.16 -2.99,3.60 -5.24,5.40 -2.25,1.81 -5.84,5.85 -7.98,8.99 -4.96,7.26 -7.95,10.01 -12.18,11.23 -3.04,0.87 -3.59,0.70 -5.49,-1.68 -3.05,-3.82 -6.56,-3.12 -20.11,3.98 -2.29,1.20 -6.11,4.59 -8.50,7.53 -2.39,2.94 -5.57,5.99 -7.07,6.76 -1.68,0.87 -3.04,2.65 -3.56,4.65 -0.63,2.45 -1.45,3.31 -3.39,3.54 -1.96,0.23 -2.71,-0.23 -3.18,-2 z
             m 25.02,-25.61 12.16,-9.12 0.52,-6.28
             c 0.28,-3.46 0.83,-8.03 1.21,-10.17
             l 0.70,-3.89 -5.15,0.50 c -2.86,0.27 -7.70,1.80 -10.88,3.42 -6.78,3.46 -8.09,5.74 -11.94,20.73 -2.65,10.32 -2.65,16.94 0.01,14.88 0.66,-0.51 6.68,-5.04 13.37,-10.05 z
             m 26.89,-1.95 c 0.58,-0.40 2.33,-2.43 3.89,-4.51 2.28,-3.04 2.93,-5.11 3.33,-10.67 0.43,-5.97 0.20,-7.31 -1.70,-9.98 -3.83,-5.37 -5.76,-5.76 -9.69,-1.95 -5.26,5.10 -8.02,16.77 -5.25,22.19 2.24,4.38 6.80,6.76 9.44,4.92 z
             m 19.82,-23.15 c 5.05,-3.48 11.62,-10.53 11.62,-12.48 0,-1.98 -2.59,-2.71 -5.57,-1.58 -1.41,0.53 -4.12,0.97 -6.02,0.97 -1.91,0 -5.00,0.64 -6.87,1.42
             l -3.40,1.42 1.97,5.33 c 1.09,2.93 2.17,5.89 2.40,6.58 0.60,1.76 1.09,1.62 5.87,-1.67 z" />
  </g>
  <!-- oracle bone "天 (frontal depiction of a person 大 with a big head — 'heaven', 'sky') -->
  <g transform="translate(50,0) scale(0.0073,0.0073)">
    <path d="M 10 0 c -8 5 -42 13 -75 16 -113 13 -172 63 -127 108 18 19 24 20 54 9 46 -16 74 -15 81 4 3 9 6 63 6 120 0 118 -7 137 -99 264 -26 36 -57 85 -70 110 -13 25 -29 56 -36 68 -15 27 -9 62 11 62 7 0 34 -28 60 -63 27 -34 61 -75 76 -91 15 -17 28 -33 28 -38 0 -15 28 -8 34 9 10 26 -5 204 -21 240 -7 18 -13 51 -13 73 0 22 -7 57 -15 77 -8 19 -15 46 -15 59 0 13 -5 43 -12 67 -14 52 -1 120 24 125 20 4 48 -45 48 -82 0 -14 6 -43 13 -63 34 -94 39 -111 52 -163 8 -30 15 -66 15 -80 0 -14 5 -32 10 -40 9 -13 14 -10 35 15 14 16 25 36 25 43 0 8 6 26 14 40 22 41 71 151 92 207 28 76 54 115 75 115 28 0 34 -25 16 -68 -9 -20 -18 -55 -21 -77 -3 -22 -44 -117 -91 -211 -47 -94 -85 -180 -85 -191 0 -11 -7 -37 -15 -56 -8 -20 -15 -52 -15 -72 0 -28 4 -35 19 -35 10 0 25 7 32 16 16 19 125 104 134 104 3 0 22 12 42 27 27 21 39 24 51 16 31 -19 24 -40 -28 -84 -28 -24 -81 -72 -117 -107 -36 -34 -71 -62 -77 -62 -15 -1 -50 -31 -68 -60 -9 -14 -19 -57 -22 -97 -8 -84 3 -112 58 -156 40 -31 47 -64 18 -90 -20 -18 -78 -22 -101 -8 z" />
  </g>
  <!-- oracle bone "旅" (people 人 under a banner 㫃 — 'troop', '[to] journey') -->
  <g transform="translate(56,0) scale(0.007,-0.007)">
    <path d="M 10 0 c -6 -4 -15 -21 -18 -39 -12 -55 -30 -60 -78 -19 -46 40 -65 45 -75 19 -5 -12 10 -32 55 -72 34 -31 63 -65 64 -76 2 -19 -8 -62 -37 -156 -8 -26 -15 -60 -16 -75 0 -16 -8 -60 -18 -98 -19 -72 -18 -106 4 -106 17 0 41 30 48 60 4 14 13 52 20 85 8 33 24 92 36 131 11 39 21 78 21 86 0 9 6 21 14 27 21 18 213 -102 318 -199 73 -68 93 -93 123 -158 20 -42 43 -89 51 -104 8 -14 14 -34 14 -44 0 -20 27 -116 45 -159 6 -16 20 -72 31 -122 19 -96 36 -121 61 -87 17 24 16 77 -2 121 -8 19 -15 48 -15 64 0 15 -5 40 -11 56 -6 15 -14 46 -19 68 -11 50 -65 206 -82 237 -66 118 -162 207 -328 305 -175 104 -183 110 -170 134 17 30 12 116 -6 123 -19 7 -16 7 -30 -2 z
             M 43 -454 c -6 -17 8 -89 27 -142 8 -22 15 -51 16 -64 0 -22 -30 -88 -56 -121 -25 -31 -73 -133 -68 -141 15 -25 44 -5 78 52 20 33 36 64 36 68 0 12 35 41 50 41 10 0 11 -19 6 -92 -4 -51 -12 -111 -18 -133 -13 -49 -16 -185 -5 -203 15 -23 34 4 46 66 33 167 42 236 42 324 0 54 -5 106 -10 116 -6 11 -15 41 -21 68 -26 113 -103 214 -123 161 z
             M 263 -488 c -25 -24 10 -110 67 -163 21 -19 26 -30 21 -55 -8 -40 -46 -138 -81 -208 -16 -33 -18 -73 -4 -82 19 -12 45 14 63 62 28 75 51 118 62 115 16 -4 12 -154 -7 -289 -18 -124 -16 -153 8 -153 23 0 35 38 55 178 23 165 24 257 4 296 -8 15 -15 36 -15 45 -1 31 -40 134 -64 165 -36 48 -83 96 -93 96 -5 0 -13 -3 -16 -7 z" />
  </g>
  <!-- oracle bone "何" (man 人 carrying a halberd 戈 — interrogative pronoun) -->
  <g transform="translate(65,0) scale(0.0067,-0.0067)">
    <path d="M 0 0 c -15 -17 -18 -40 -17 -184 0 -119 -3 -167 -12 -174 -17 -13 -100 -38 -187 -58 -41 -10 -100 -25 -130 -34 -49 -15 -55 -20 -58 -47 -2 -23 8 -45 42 -92 26 -34 46 -66 46 -71 0 -5 7 -14 15 -21 8 -7 15 -20 15 -30 0 -21 41 -50 70 -50 14 0 25 11 36 38 15 38 101 111 181 154
             l 32 18 26 -45 c 15 -24 38 -75 52 -112 25 -67 25 -71 25 -370 -1 -209 3 -305 10 -309 16 -10 48 33 48 65 0 14 7 60 16 101 23 107 23 342 0 440 -25 107 -40 144 -105 263 -22 39 -31 69 -29 90 3 30 7 33 88 60 120 39 137 36 161 -33 10 -30 19 -70 19 -89 0 -19 8 -68 17 -108 13 -55 21 -73 34 -73 33 0 41 26 37 122 -8 171 -45 339 -81 371 -19 16 -21 17 -39 1 -12 -12 -18 -28 -16 -52 3 -38 -1 -42 -77 -65 -27 -8 -69 -20 -93 -28 -66 -19 -69 -12 -79 175 -5 98 -12 161 -19 163 -6 2 -18 -5 -28 -16z
             m -46 -464 c 0 -15 -28 -50 -79 -101 -60 -60 -84 -77 -102 -74 -24 3 -92 83 -86 101 2 8 101 46 192 74 11 3 29 12 39 19 24 16 36 10 36 -19 z" />
  </g>
  <!-- oracle bone "父" (hand 又 holding a stone (ax) 丨 — 'father') -->
  <g transform="translate(72,0) scale(0.007,0.007)">
    <path d="M 0 30 c -4 7 -11 85 -15 173 -4 88 -11 205 -17 260 -14 138 -14 492 0 501 38 23 78 -118 79 -277 0 -68 4 -109 12 -117 16 -16 80 -15 115 3 15 7 49 23 74 35 72 32 82 48 73 117 -9 74 -32 118 -105 198 -59 65 -73 100 -44 111 44 17 185 -145 208 -238 4 -15 15 -34 24 -43 16 -16 18 -16 31 1 25 34 71 138 86 197 8 31 18 62 21 67 8 12 23 98 38 215 12 86 13 90 37 90 21 0 26 -6 32 -40 12 -67 9 -112 -13 -208 -23 -102 -36 -139 -86 -242 -43 -89 -50 -100 -96 -154 -43 -51 -44 -55 -50 -181 -5 -98 -17 -139 -63 -212 -26 -41 -81 -72 -108 -62 -23 9 -20 21 17 67 18 23 40 58 49 77 19 41 34 165 20 174 -13 8 -244 -110 -255 -130 -9 -16 -8 -45 9 -255 5 -59 3 -82 -10 -107 -17 -33 -48 -43 -63 -20 z"/>
  </g>
  <!-- oracle bone "戈" ('halberd') -->
  <g transform="translate(81,0) scale(0.007,0.007)">
    <path d="M 0 30 c -28 20 -12 42 39 55 l 46 11 0 115 c 0 108 -1 115 -22 126 -15 8 -111 13 -308 14 -157 1 -293 5 -302 10 -23 9 -23 28 1 49 17 15 49 17 314 15 163 0 301 2 308 6 9 6 11 93 6 384 -6 424 -9 447 -68 453 -36 3 -60 31 -43 48 14 14 223 15 237 1 15 -15 2 -38 -30 -53 -26 -13 -28 -17 -26 -73 1 -33 3 -213 5 -400 2 -187 6 -345 10 -351 4 -6 26 -14 49 -17 22 -3 50 -13 61 -23 20 -19 20 -19 -7 -41 -14 -13 -36 -23 -48 -23 -47 0 -51 -12 -49 -122 2 -57 6 -106 10 -110 4 -4 23 -8 42 -10 30 -3 35 -7 35 -28 0 -22 -5 -25 -45 -31 -120 -16 -197 -18 -215 -5 z" />
  </g>
  <!-- oracle bone "正" (phonetic 丁 + semantic 止 — 'straight'; 'right'; 'proper'; '[to] correct') -->
  <g transform="translate(87,0) scale(0.0064,0.0064)">
    <path d="M 0 40 c -16 29 -16 46 -6 163 6 72 11 154 11 183 0 78 14 101 74 117 98 26 194 46 224 46 17 0 43 5 59 11 15 6 55 15 88 19 33 4 67 10 76 14 9 4 24 0 37 -11 17 -15 25 -44 43 -158 12 -77 22 -174 23 -215
             l 1 -74 -60 -13 c -102 -22 -218 -45 -272 -53 -28 -4 -66 -13 -85 -18 -18 -6 -60 -15 -93 -21 -33 -6 -70 -14 -82 -17 -17 -5 -25 1 -38 27 z
             m 185 65 c 36 8 97 19 135 25 39 5 84 14 100 19 17 5 52 12 78 16 26 3 56 14 67 23 18 15 19 19 4 96 -8 44 -19 109 -24 144 -11 86 -29 102 -95 90 -27 -5 -81 -18 -120 -29 -38 -12 -88 -25 -110 -29 -22 -4 -50 -13 -62 -19 -12 -7 -30 -12 -39 -12 -34 0 -54 -30 -54 -82 0 -27 -5 -92 -11 -144 -11 -89 -10 -96 7 -109 11 -8 28 -12 39 -9 11 3 49 12 85 20 z
             M 20 660 c -12 19 16 121 47 168 27 41 43 57 96 98 21 17 23 31 38 233 8 118 20 225 24 237 13 33 54 30 78 -5 21 -29 92 -177 92 -191 0 -17 63 -127 87 -153 24 -25 25 -30 13 -57 -10 -25 -10 -37 3 -68 25 -65 42 -172 30 -184 -22 -22 -39 0 -57 77 -18 71 -50 154 -60 154 -11 0 -107 -53 -121 -66 -18 -18 -19 -67 -3 -145 12 -60 3 -89 -27 -89 -19 0 -45 73 -45 125 0 24 -5 47 -11 51 -18 11 -100 -80 -125 -138 -22 -52 -45 -71 -59 -47 z
             m 326 360 c 31 15 39 24 34 37 -4 9 -11 30 -15 47 -4 16 -22 61 -39 99 -42 90 -54 78 -61 -62 -8 -148 1 -162 81 -121 z" />
  </g>
  <!-- oracle bone "韋" (footsteps 止 around an enclosure 口 — 'tanned leather') -->
  <g transform="translate(94,0) scale(0.0062,0.0062)">
    <path d="M 0 1008 c -25 10 -37 21 -35 32 3 13 15 15 73 13 70 -3 70 -3 108 36 34 35 37 43 28 61 -7 12 -18 21 -26 21 -19 0 -91 38 -105 56 -7 7 -9 21 -6 30 8 20 50 12 112 -23 42 -24 46 -24 64 -8 10 9 26 39 35 67 21 64 11 77 -80 103 -65 18 -94 43 -79 66 3 6 20 9 38 6 91 -16 213 -46 281 -69 17 -5 50 -14 75 -19 76 -14 134 -35 144 -52 13 -20 -9 -66 -57 -117 -60 -65 -79 -72 -199 -75 -59 -1 -109 -3 -111 -6 -2 -2 -18 -26 -35 -53 -18 -28 -45 -58 -60 -68 -34 -22 -112 -23 -165 -1 z
             m 437 193 c 45 10 116 74 101 89 -6 6 -39 17 -75 26 -112 29 -119 29 -126 9 -4 -11 -16 -38 -26 -62 -15 -34 -17 -47 -7 -58 13 -16 74 -18 133 -4 z
             M 502 528 c -3 2 -50 9 -104 14 -57 5 -132 20 -175 35 -41 14 -87 26 -101 26 -14 0 -34 9 -43 19 -17 19 -17 24 8 118 15 54 32 117 37 140 6 26 21 51 37 64 28 22 45 22 132 -1 25 -7 72 -18 105 -26 33 -8 81 -21 106 -29 26 -8 55 -15 66 -15 11 0 30 -11 43 -25 20 -22 24 -35 22 -83 -2 -79 -37 -211 -59 -228 -17 -13 -65 -19 -74 -9 z
             m 14 66 c 27 12 43 51 52 124 6 44 4 52 -17 71 -34 30 -184 84 -235 84 -11 0 -37 7 -57 15
             l -37 16 -19 -43 c -11 -24 -20 -52 -20 -63 0 -11 -7 -31 -15 -45 -22 -38 -18 -57 19 -85 36 -27 105 -50 200 -65 32 -5 61 -11 64 -14 9 -9 39 -7 65 5 z
             M 538 20 c -16 7 -48 20 -70 28 -95 35 -132 50 -157 63 -14 8 -33 14 -42 14 -22 0 -89 35 -105 54 -32 39 28 114 112 140 29 9 77 15 107 14 54 -3 56 -2 101 46
             l 46 49 92 0 c 73 0 96 -4 111 -18 43 -39 13 -56 -60 -35 -46 14 -114 -4 -135 -36 -15 -23 -14 -24 31 -44 26 -11 51 -20 56 -20 5 0 22 -7 38 -15 61 -31 20 -63 -55 -43 -22 6 -56 11 -75 12 -30 1 -37 -4 -55 -36
             l -20 -37 23 -24 c 13 -14 50 -35 83 -47 63 -23 79 -41 59 -65 -15 -18 -45 -18 -85 0 z
             m -151 144 c 4 5 9 29 12 54 6 40 4 46 -16 52 -34 11 -85 -3 -115 -30 -31 -29 -29 -48 6 -53 13 -2 32 -10 43 -18 23 -16 62 -19 70 -5 z" />
  </g>
  <!-- oracle bone "秋" 'autumn' -->
  <g transform="translate(101,0) scale(0.11,0.11)">
  <path d="M 40 37 c -0.13 -4.83 -2.69 -4.37 -4.94 -4.64 c -2.25 -0.27 -5.67 1.14 -6.70 1.28
           c -1.02 0.14 -3.00 -0.41 -3.00 -0.41 l -0.18 -6.63 c 4.55 -1.75 4.86 -5.02 4.31 -8.90
           c -0.72 -5.14 -4.06 -3.18 -4.90 -5.08 c 0 0 -0.64 -4.45 0.82 -8.15 c 1.63 0.07 5.51 -0.41 5.51 -0.41
           c 2.21 -0.09 3.11 -1.52 1.76 -2.17 c 0 0 -6.46 -2.53 -8.26 -2.21 c -2.67 0.47 -3.74 9.59 -4.55 13.35
           c -0.27 1.24 -2.48 0.54 -2.82 0.05 c -1.23 -1.73 -2.01 -6.10 -3.10 -9.29 c -0.92 -2.68 -2.32 -4.02 -3.34 -4.02
           c -1.94 0 -5.01 3.57 -5.91 4.56 c -0.90 0.99 -1.31 5.28 3.48 1.40 c 0 0 1.35 -1.67 1.53 -0.27
           c 0.17 1.29 1.09 3.90 2.29 7.27 c 0 0 1.36 1.76 -1.75 2.21 c -1.50 0.22 -3.63 0.87 -4.11 3.12
           c -0.51 2.43 0.46 6.21 3.62 8.74 c 0.69 0.68 4.72 0.91 4.72 0.91 s 0.62 4.27 0.54 6.62
           c 0 0 -5.53 0.15 -5.79 2.04 c -0.34 2.50 1.50 5.31 1.02 5.99 s -2.91 1.22 -5.18 1.09
           c -0.89 -1.36 -2.32 -3.27 -2.32 -3.27 s -0.95 0.14 -1.50 0.89 c -0.55 0.75 -0.14 3.20 -0.41 3.47 s -2.04 0.89 -1.98 1.43 s -0.61 1.02 0.75 1.84
           c 1.36 0.82 1.57 2.04 1.98 3.13 c 0.41 1.09 2.45 1.98 2.93 0 s 0.48 -2.66 1.43 -2.52
           c 0.95 0.14 2.86 -1.91 3.88 -1.91 c 1.23 0.13 2.03 4.75 2.47 8.23
           c -0.07 2.31 -0.27 5.12 -0.83 5.91 c -1.00 1.41 -3.65 3.61 -4.22 1.14
           c -0.41 -1.77 -2.51 -2.48 -3.72 -0.09 c -1.36 2.69 -0.95 9.81 1.23 9.72
           c 3.95 -0.04 2.90 -3.41 4.59 -4.18 c 1.37 -0.62 2.78 -0.92 3.70 -0.65 l 0.00 0.01
           c -0.15 5.36 0.36 9.21 -0.15 9.73 c -1.73 5.36 -0.77 6.45 0.25 6.79
           c 9.61 -14.85 17.88 -25.37 17.95 -46.28 c 1.09 -0.68 3.20 -0.75 3.68 0.27
           c 0.91 9.37 -1.14 20.95 -6.47 33.99 c -1.41 2.74 0.51 4.06 1.57 2.38
           C 35 67 40 48 40 37 z
           M 24 18 c 1.54 0.09 2.00 0.27 2.27 3.18 c 0.27 2.91 -5.27 2.54 -5.27 2.54 l -1.00 -5.54
           C 19 18 22 17 23 18 z
           M 13 25 c -1.40 0.14 -2.59 -0.88 -3.25 -2.83 c -1.10 -3.23 5.15 -3.64 7.17 -3.30 c 0.49 2.10 0.42 4.42 -0.06 5.35
           C 16 24 15 24 13 24 z
           M 14 38 c 0 0 4.17 -0.53 4.96 -0.05 c -0.05 1.22 0.16 1.85 0.42 2.80 c -0.53 0.53 -3.26 0.51 -3.91 0.69
           C 14 41 13 40 13 38 z
           M 16 71 v -4.87 c 1.36 -1.08 2.18 -2.21 4.09 -2.35
           C 19 67 18 70 16 71 z
           M 20 60 c -1.27 1.77 -2.41 0.86 -4.13 2.27 v -7.04 c 1.33 0.31 2.72 0.27 4.13 0 V 90 z
           M 20 51 c -0.27 0.71 -2.37 0.60 -3.75 1.09 c -0.75 -0.14 -0.34 -5.55 0.07 -5.89 c 1.09 -0.65 3.49 -0.86 3.49 -0.86
           S 20 50 21 51 z
           M 22 34 c -1.24 0.31 -2.54 0.36 -3.88 0.20 l -0.20 -6.40 c 1.40 -0.03 2.76 -0.20 4.09 -0.48 l 0.49 5.88
           C 22 34 22 34 22 34 z
           M 25 58 c -1.52 0 -2.05 -1.23 -1.73 -2.61 c 0.17 -0.73 1.88 -0.39 1.88 -0.39
           L 24 57 z
           M 27 59 c -0.18 1.45 -1.93 2.18 -3.25 2.04 c -1.01 -0.10 -0.68 -2.13 -0.75 -6.08
           c -0.01 -0.67 1.04 -1.10 1.64 -1.14 c 1.60 -0.09 2.32 1.40 2.32 1.40
           S 27 47 27 49 z
           M 26 40 c -1.09 1.02 -3.10 0.92 -3.10 0.92 s -0.70 -3.60 -0.07 -3.64 c 1.96 -0.14 3.81 -0.27 4.02 -0.07
           S 27 39 26 40 z" />
  </g>
  <!-- oracle bone "象" 'elephant' -->
  <g transform="translate(108,0) scale(0.17,0.17)">
    <path d="M 18 50 c 0.5 -2.4 0.3 -3 -0.9 -3 -2.1 0 -2.0 -0.9 0.6 -3.7 3.4 -3.7 1.4 -3.8 -4.7 -0.4 -3.1 1.8 -6.6 3.0 -7.8 2.8 -2.0 -0.3 -2.0 -0.5 0.7 -1.8 2.7 -1.3 2.8 -1.7 2.4 -6.7 -0.5 -6.3 -0.9 -6.8 -3.6 -5.2 -3.6 2.3 -3.7 -0.1 -0.1 -2.9 5.0 -3.9 9.1 -8.3 8.7 -9.6 -0.2 -0.6 -1.9 -1.5 -3.8 -2.1 -3.4 -1.0 -3.4 -1.0 -0.7 -1.4 4.8 -0.6 6.2 -9.7 2.2 -13.7 -3.1 -3.1 -8.8 0.8 -7.7 5.4 0.4 1.7 0.2 2.2 -0.6 1.7 -1.9 -1.2 -1.3 -6.4 1.0 -8.6 3.7 -3.4 8.2 -2.4 10.2 2.3 0.6 1.4 3.3 4.0 6.0 5.8 4.6 3.1 7.7 8.0 6.2 9.6 -0.3 0.3 -2.5 0.7 -4.8 0.8 -4.2 0.2 -4.2 0.2 -4.2 4.1 0.0 2.4 0.9 5.1 2.4 7.1 1.6 2.1 2.5 5.0 2.8 8.8 0.3 3.5 1.0 5.8 1.8 6.1 2.2 0.8 1.6 2.5 -0.7 1.8 -1.6 -0.5 -2.3 -0.0 -3.2 2.4 -1.5 4.0 -3.1 4.0 -2.2 0.1 z
             m -1.4 -11.5 c 1.6 -0.8 3.0 -2.2 3.0 -3.1 0 -1.2 -4.0 -9.1 -5.7 -11.3 -0.2 -0.2 -1.4 0.6 -2.7 1.9 -2.0 1.9 -2.3 2.9 -1.9 5.9 0.8 5.1 2.0 8.2 3.3 8.2 0.6 0 2.4 -0.7 4.0 -1.5 z
             m 6.5 -23.0 c 0 -1.1 -0.7 -2.1 -1.6 -2.3 -1.7 -0.3 -3.3 2.3 -2.3 3.9 1.0 1.6 3.9 0.4 3.9 -1.6 z
             m -5.7 -2.3 c 0.2 -1.4 -0.2 -2.2 -1.2 -2.2 -1.0 0 -1.6 0.9 -1.6 2.6 0 3.1 2.4 2.8 2.8 -0.4 z" />
  </g>
  <!-- oracle bone "豸" 'beasts of prey' -->
  <g transform="translate(114,0) scale(0.17,0.17)">
    <path d="M 14 52 c -0.0 -0.8 1.6 -3.1 3.6 -5.2 3.2 -3.3 3.7 -4.4 4.1 -9.8 0.2 -3.4 -0.0 -6.0 -0.5 -6.0 -0.5 0 -2.6 2.0 -4.6 4.5 s -4.4 4.5 -5.3 4.5 c -1.0 0 0.8 -2.5 4.6 -6.4 3.4 -3.5 6.2 -7.1 6.2 -7.9 0 -3.0 -1.9 -2.6 -5.4 1.4 -2.0 2.2 -4.4 4.0 -5.3 4.0 -1.1 0 0.5 -2.1 4.5 -6.1 3.4 -3.4 6.1 -6.6 5.9 -7.2 -0.3 -0.8 -2.5 -1.0 -6.5 -0.8 -4.0 0.2 -6.2 -0.0 -6.2 -0.8 0 -0.6 1.7 -1.1 3.8 -1.1 7.6 -0.0 8.2 -0.6 8.2 -7.1 0 -5.9 -0.0 -5.9 -3 -5.9 -1.6 0 -3 -0.4 -3 -0.9 0 -1.3 9.2 -2.3 14.0 -1.5 3.6 0.6 4.1 0.9 3.5 2.8 -0.3 1.2 -0.9 4.4 -1.2 7.1 -0.7 5.7 -1.8 7.6 -3.9 6.8 -0.8 -0.3 -2.1 0.0 -2.9 0.7 -1.2 1.0 -1.4 3.3 -1.1 11.4 0.2 5.6 -0.0 11.5 -0.5 13.1 -1.0 3.5 -8.8 12.7 -8.8 10.5 z
             m 14.3 -39.4 c 0.3 -0.8 0.8 -3.5 1.2 -6 l 0.7 -4.6h -3.6 -3.6 v 5.3 c 0 2.9 0.3 5.6 0.7 6 1.2 1.2 4.1 0.7 4.7 -0.7 z" />
  </g>
  <!-- oracle bone "龜" 'turtle' -->
  <g transform="translate(120,0) scale(0.17,0.17)">
    <path d="m 14 50 c 0.4 -1.9 -0.0 -2.5 -1.9 -2.8 -2.3 -0.4 -2.3 -0.4 0.4 -1.6 3.3 -1.4 3.4 -1.9 0.5 -4.3 -3.1 -2.6 -0.4 -2.5 3.1 0.1 3.2 2.3 7.7 1.9 8.5 -0.9 0.4 -1.3 0.2 -7.9 -0.3 -12.4 -0.1 -0.4 -1.5 -0.8 -3.3 -0.8 -2.3 0 -3.9 0.8 -5.5 2.8 -1.8 2.2 -2.3 2.4 -2.3 1 -0.0 -1.0 -0.7 -1.8 -1.5 -1.8 -0.8 0 -1.5 -0.5 -1.5 -1
             s 0.7 -1 1.4 -1 c 2.1 0 2.9 -1.9 1.5 -3.6 -0.7 -0.8 -0.9 -1.8 -0.5 -2.2 0.4 -0.4 1.4 0.3 2.3 1.5 1.0 1.5 2.5 2.2 4.7 2.2 5.5 0 7.4 -4.1 3.5 -7.6 -3.0 -2.7 -3.7 -5.2 -2.7 -9.9 0.8 -3.5 5.0 -9.6 6.8 -9.6 0.3 0 2.3 1.5 4.3 3.4 4.1 3.7 4.7 7.2 2.5 13.3 -1.5 4.2 -0.5 5.2 3.1 3.0 1.6 -0.9 3.4 -1.7 4.0 -1.7 1.6 0 1.4 4.9 -0.5 13.3 -2.6 11.3 -6.6 18.2 -12.6 21.3 -2.6 1.4 -2.8 1.3 -3.4 -1.1 -0.3 -1.4 -0.4 -3.2 -0.1 -4.0 0.4 -1.0 -0.1 -1.5 -1.5 -1.5 -3.2 0 -5.5 1.7 -6.9 5.0 -1.5 3.6 -2.9 4.0 -2.3 0.6 z
             m 15.9 -2.8 c 2.4 -2.2 3.1 -5.8 1.2 -5.8 -2.8 0 -4.9 2.2 -4.9 5.0 0 3.5 0.6 3.7 3.7 0.8 z
             m 6.1 -6.8 c 0.2 -0.8 -0.1 -1.1 -0.9 -0.9 -0.7 0.2 -1.5 1.0 -1.8 1.8 -0.2 0.8 0.1 1.1 0.9 0.9 0.7 -0.2 1.5 -1.0 1.8 -1.8 z
             m -4.2 -3.7 c 0.8 -3.1 -0.7 -4.8 -3.5 -3.9 -1.6 0.5 -2.1 1.5 -2.1 3.9 0 1.8 0.3 3.5 0.6 3.9 1.2 1.2 4.3 -1.3 5.0 -3.9 z
             m 5.2 -0.6 c 1.2 -1.2 1.7 -6.8 0.6 -6.8 -2.0 0 -4.4 2.4 -4.4 4.4 0 3.6 1.6 4.6 3.8 2.4 z
             m -7 -6 c 1.4 -1.4 1.6 -5.8 0.3 -5.8 -2.6 0 -4.1 1.5 -4.1 4.1 0 3.0 1.7 3.8 3.8 1.7 z
             m 6.5 -1.9 c 1.5 -0.7 2.7 -2.3 3.1 -4.2 0.8 -3.9 -0.3 -5.0 -3.4 -3.4 -1.9 0.9 -2.6 2.2 -2.8 5.0 -0.3 4.1 -0.3 4.2 3.2 2.6 z
             m -6.3 -6.4 c 0.7 -0.8 1.0 -1.8 0.7 -2.1 -1.0 -1.0 -3.7 0.5 -3.7 2.1 0 2.0 1.4 2.0 3.0 0.0 z
             m -0.0 -5.5 c 0 -0.6 -0.5 -1.9 -1.0 -3.0 -0.7 -1.4 -0.7 -3.1 0.2 -6.0 1.0 -3.5 1.0 -4.3 -0.4 -5.7 -3.0 -3.0 -4.4 -0.2 -4.1 7.9 0.1 4.0 0.3 7.4 0.3 7.5 0.3 0.8 5.1 0.1 5.1 -0.8 z
             m -7 -5.9 c 0 -1.6 -0.5 -3 -1 -3 s -1 1.4 -1 3 0.5 3 1 3 1 -1.4 1 -3 z
             m 10 -1.1 c 0 -1.6 -0.4 -2.9 -0.9 -2.9 -1.1 0 -2.1 3.8 -1.4 5.6 0.9 2.2 2.3 0.6 2.3 -2.6 z" />
  </g>
  <!-- oracle bone "爿" 'low table' -->
  <g transform="translate(127,0) scale(0.17,0.17)">
    <path d="M 40 50 c 0.9 -5.4 -0.2 -6.1 -10.5 -6.7 -10.0 -0.6 -11.8 -0.0 -11.8 3.7 0 1.3 -0.5 2.4 -1 2.4 -1.0 0 -1.6 -5.9 -1.1 -11 0.3 -3.6 2.1 -5.0 2.1 -1.8 0 1.4 0.4 2.9 0.8 3.1 0.5 0.3 4.9 0.8 9.8 1.2 11.9 0.9 11.9 0.9 12.2 -13.5 0.2 -13.2 0.5 -13.0 -12.4 -12.7
             l -8.0 0.1 -0.3 4.8 c -0.3 4.6 -1.4 6.2 -2.5 3.4 -0.8 -2.2 0.5 -16.6 1.5 -16.0 0.5 0.3 0.9 1.3 0.9 2.3 0 2.0 5.0 3.1 15.1 3.1
             h 5.9 l 0.0 -6.8 c 0.0 -4.7 0.3 -6.3 1.0 -5.2 1.1 1.6 1.4 47.0 0.4 50.8 -1.0 3.6 -2.7 2.7 -2.1 -1.1 z" />
  </g>
  <!-- oracle bone "為" 'to lead' -->
  <g transform="translate(134,0) scale(0.17,0.17)">
    <path d="M 47 50 c 0.3 -1.2 0.8 -3.1 1.3 -4.1 0.7 -1.6 0.4 -1.8 -1.4 -1.2 -2.9 0.9 -2.7 -0.3 0.5 -3.6 3.5 -3.7 1.3 -3.6 -4.2 0.2 -2.4 1.6 -4.8 3 -5.4 3 -1.9 0 -1.2 -1.8 0.9 -2.5 2.6 -0.8 3.4 -4.3 2.1 -9.3 -0.9 -3.5 -1.5 -4.1 -4.2 -4.4 -3.0 -0.3 -2.9 -0.4 3.5 -4.6 3.6 -2.4 6.6 -4.7 6.6 -5.2 0 -0.5 -1.3 -1.1 -3.0 -1.5 -4.0 -0.9 -4.8 -2.5 -1.2 -2.5 2.4 0 3.1 -0.6 4.0 -3.5 0.6 -1.9 0.8 -4.4 0.6 -5.5 -1.0 -3.9 -9.6 -3.9 -10.8 0.0 -0.8 2.6 -2.5 1.6 -1.8 -1.1 0.7 -2.7 4.1 -5.0 7.5 -5.0 2.0 0 4.0 1.2 6.7 4 2.7 2.7 4.8 4.0 6.7 4.0 2.6 0.0 7.3 2.9 7.3 4.5 0 1.0 -3.0 3.3 -6.5 4.8l -3 1.3 0.1 12.6 c 0.0 7.0 0.4 12.9 0.8 13.3 0.4 0.4 0.7 1.8 0.7 3.1 0 2.1 -0.2 2.3 -1.6 1.1 -1.4 -1.1 -1.8 -1.1 -3 0.6 -0.8 1.1 -1.4 2.3 -1.4 2.7 0 0.4 -0.5 0.8 -1.1 0.8 -0.6 0 -0.9 -1.0 -0.6 -2.2 z
             m 3.7 -17.2 c 1.3 -1.5 0.9 -10.3 -0.5 -12.6 -0.4 -0.6 -2.1 0.3 -4.2 2.1 -3.4 3.0 -3.6 3.4 -3.3 8.8 0.1 3.1 0.5 6.0 0.8 6.4 0.5 0.8 5.2 -2.2 7.3 -4.7 z
             m 0.6 -20.0 c 0.3 -0.8 0.2 -1.9 -0.1 -2.5 -0.8 -1.4 -3.5 0.6 -3.5 2.6 0 1.8 2.9 1.8 3.6 -0.1 z
             m 5.8 0.8 c 2.5 -1.0 1.9 -3.4 -0.9 -3.4 -1.8 0 -2.5 0.5 -2.5 2 0 2.1 0.8 2.4 3.4 1.4 z
             M 17 18 c 1.0 -1.5 2.8 -3.9 4.0 -5.2 s 2.6 -4.4 3.0 -6.8 c 0.8 -4.8 3.6 -8.9 5.4 -7.8 0.8 0.5 0.6 1.5 -0.9 3.4l -2.1 2.7 2.7 0.5 2.7 0.5 -2.1 1.9 c -2.5 2.2 -2.7 3.9 -0.6 5.6 0.8 0.7 1.5 1.6 1.5 2.1 0 1.4 -2.6 1.0 -4 -0.6 -1.8 -2.2 -2.5 -1.9 -5.4 2.5 -1.5 2.2 -3.4 4 -4.2 4 -1.4 0 -1.4 -0.3 0.1 -2.8 z" />
  </g>
  <!-- oracle bone "疾" 'illness' -->
  <g transform="translate(141,0) scale(0.17,0.17)">
    <path d="M 46 45 c -0.0 -9.3 1.6 -15.4 5.3 -20.4 2.9 -3.8 2.8 -6.2 -0.3 -9.1 -1.7 -1.6 -2.0 -1.5 -4.9 0.9 -5.0 4.2 -6.0 2.7 -1.6 -2.4 2.3 -2.7 2.5 -3.7 1.9 -7.6 -0.8 -5.5 0.9 -6.1 2.4 -0.7 0.6 2.1 2.4 5.7 4.0 8.2 1.6 2.4 3.0 5.1 3.0 6.0 0 0.9 -1.6 4.9 -3.5 8.9 -3.1 6.6 -3.5 8.2 -3.5 15.7 0 6.7 -0.3 8.4 -1.4 8.4 -1.1 0 -1.4 -1.7 -1.5 -8.0 z
             m 18.6 0.3 c -0.8 -0.8 -0.9 -25.2 -0.0 -37.1 0.7 -9.2 2.4 -11.8 2.4 -3.7 0 2.4 0.5 4.7 1.0 5.0 1.8 1.1 5.0 -0.6 5.0 -2.6 0 -2.1 1.9 -2.7 2.1 -0.7 0.6 7.5 0.3 11.8 -0.8 11.8 -0.7 0.0 -1.2 -1.1 -1.2 -2.6 0 -2.3 -0.3 -2.5 -3.2 -2.2 -1.8 0.2 -3.1 0.7 -3 1.1 0.1 0.4 0.2 3.9 0.2 7.6 0 5.0 0.4 7.0 1.4 7.4 2.4 0.9 5.4 -0.4 6.0 -2.6 1.1 -4.2 2.7 -0.1 2.4 5.9 -0.3 6.0 -2.0 8.1 -2.6 3.1 -0.3 -2.4 -0.8 -2.8 -3.8 -2.8h -3.4 v 6.5 c 0 6.0 -0.6 7.5 -2.3 5.8 z
             m -8.0 -2.0 c -1.1 -1.1 -0.9 -5.4 0.2 -5.4 0.5 0 1.2 0.4 1.5 0.9 0.8 1.2 -0.8 5.4 -1.7 4.5 z
             m -15.1 -4.0 c -0.7 -1.9 0.3 -6.4 1.4 -6.4 1.3 0 2.2 3.8 1.5 6 -0.8 2.4 -2.1 2.6 -2.9 0.4 z
             M 36 9 c 0.0 -3.1 1.5 -6.0 2.5 -5.0 0.9 0.9 -0.5 7.8 -1.6 7.8 -0.5 0 -0.9 -1.2 -0.9 -2.8 z
             M 56 3 c 0 -1.3 0.5 -2.7 1 -3.1 0.6 -0.4 1 0.7 1 2.4 0 1.7 -0.5 3.1 -1 3.1 s -1 -1.1 -1 -2.4 z" />
  </g>
</svg>
