<svg viewBox="0 0 1520 60" style="background-color:#ffffff00" xmlns="http://www.w3.org/2000/svg">
  <style>
    text {
      font: bold 50px sans-serif;
    }
    path {
       fill:              none;
       stroke:            #000000;
       stroke-width:      4;
       stroke-linecap:    round;
       stroke-linejoin:   round;
    }
  </style>
  <!-- proto sinaic "A" -->
  <g transform="translate(0,0)">
    <path d="M 12,7
             C 12,18 24,20 28,20
             C 32,20 40,20 47,20
             C 53,20 53,8 53,8
             M 29,21 L 12,53 L 17,58 L 47,39 L 47,20
             M 34,29 L 34,27" />
  </g>
  <!-- proto sinaic "B" -->
  <g transform="translate(64,0)">
     <path d="M 9,50 C 9,50 9,16 9,16
              L 55,16 L 55,50 L 23,50" />
  </g>
  <!-- proto sinaic "G" -->
  <g transform="translate(128,0)">
     <path d="M 56,44 L 24,44 L 8,20" />
  </g>
  <!-- proto sinaic "D" -->
  <g transform="translate(192,0)">
    <path d="M 16,21 L 16,37
             C 16,39 18,41 20,41 L 44,41
             C 47,41 48,39 48,37
             C 48,31 48,21 48,21
             M 6,21 L 58,21" />
  </g>
  <!-- proto sinaic "E" -->
  <g transform="translate(256,0)">
    <path d="M 32,38 C 32,38 32,18 32,18
             M 49,12 L 49,24 L 18,24 L 18,12
             M 39,13 C 39,16 36,19 33,19
             C 31,19 28,16 28,13
             C 28,10 31,8 33,8
             C 36,8 39,10 39,13 z
             M 47,55 L 32,38 L 17,55" />
  </g>
  <!-- proto sinaic "W" -->
  <g transform="translate(320,0)">
    <path d="M 32,57 C 32,57 32,29 32,29
             M 42,19 C 42,25 38,29 32,29
             C 26,29 22,25 22,19
             C 22,14 26,9 32,9
             C 38,9 42,14 42,19 z" />
  </g>
  <!-- proto sinaic "Z" -->
  <g transform="translate(384,0)">
    <path d="M 12,23 L 52,23
             M 12,43 L 52,43" />
  </g>
  <!-- proto sinaic "H" -->
  <g transform="translate(448,0)">
    <path d="M 12,23 L 52,23
             M 12,43 L 52,43
             M 22,24 L 22,42
             M 32,24 L 32,42
             M 42,24 L 42,42" />
  </g>
  <!-- proto sinaic "Tet" -->
  <g transform="translate(512,0)">
    <path    d="M 30,50 A 15,10 0 0 0 30,20 15,10 0 0 0 30,50 z
                M 30,50 L 30,20 M 10,35 L 50,35" />
  </g>
  <!-- proto sinaic "I" -->
  <g transform="translate(576,0)">
    <path d="M 59,41 L 15,41 L 6,25
             M 32,41 L 43,27 L 59,27" />
  </g>
  <!-- proto sinaic "K" -->
  <g transform="translate(640,0)">
    <path d="M 27,8 L 27,46
             M 36,8 L 36,46
             M 17,8 C 12,42 10,56 32,56
             C 54,56 52,40 46,8" />
  </g>
  <!-- proto sinaic "L" -->
  <g transform="translate(704,0)">
    <path d="M 23,25
             C 36,24 37,14 32,10
             C 28, 6 15,3 13,16
             C 11,29 31,53 53,57" />
  </g>
  <!-- proto sinaic "M" -->
  <g transform="translate(768,0)">
     <path d="M 7,35 L 14,28 L 21,35 L 28,28 L 35,35 L 42,28 L 49,35 L 56,28" />
  </g>
  <!-- proto sinaic "N" -->
  <g transform="translate(832,0)">
     <path d="M 7,15 C 14,16 19,25 19,33 L 40,33 C 51,33 55,39 56,43" />
  </g>
  <!-- proto sinaic "X" -->
  <g transform="translate(896,0)">
    <path d="M 47,11 10,29 m 10,8  l 28 -14 m 1,11 L 28,44 m 19,12 L 29,20" />
  </g>
  <!-- proto sinaic "O" -->
  <g transform="translate(960,0)">
    <path d="M7,33 a 38,38 0 0,1 50,0 a 38,38 0 0,1 -50,0 z m18 -9 a 8,6 0 1,0 14,0" />
  </g>
  <!-- proto sinaic "G" -->
  <text x="1044" y="50">&#x1339b;</text>
  <!-- proto sinaic "P" -->
  <g transform="translate(1088,0)">
     <path d="M 8,37 C 31,38 40,36 40,10
              M 8,46 C 39,49 51,44 49,11" />
  </g>
  <!-- proto sinaic "Tsade" -->
  <g transform="translate(1152,0)">
    <path d="M 24,50 C 20,42 18,40    8,36
             C  4,36    4,36  8,34
             C 10,32   12,32 18,34 L 24,38 L 24,28
             C 24,18   28,14 30,18
             C 30,20   30,26 30,30
             C 30,36   32,36 36,34 C 42,32   50,32 50,34
             C 50,36   48,38 44,38 C 40,40   36,44 34,50
             C 32,54   30,58 28,58 C 28,58   26,54 24,50 z"  style="fill:black;fill-rule:evenodd" />
  </g>
  <!-- proto sinaic "Q" -->
  <g transform="translate(1200,0)">
    <path d="M 32,25 a 13,18 0 1,0 2,0 z
             a  7, 9 0 1,1 2,0 z" />
  </g>
  <!-- proto sinaic "R" -->
  <g transform="translate(1264,0)">
    <path d="M 26,57 C 26,51 21,41 12,40
             C 12,40 22,26 27,18 C 31,10 37,5 44,7
             C 51,10 52,22 46,30 C 39,37 39,38 39,42
             C 38,48 46,50 46,57 M 26,20 L 46,30 M 27,28 L 31,30" />
  </g>
  <!-- proto sinaic "Shamash" -->
  <g transform="translate(1328,0)">
    <path d="M 22 17 l 10 0 l 0 0
             c 2 0 4 1 6 2
             c 1.5 1.5 2.4 3.7 2.4 5.9 l 0 8.3
             c 0 0 0 0 0 0 l -27 0 l 0 0
             c 0 0 0 0 0 0 l 0 -8 l 0 0
             c 0 -4.6 3.7 -8.3 8.3 -8.3 z
             M 22 17 l 10 0 l 0 0
             c 2.2 0 4.3 .8 5.9 2.4
             c 1.5 1.5 2.4 3.7 2.4 5.9 l 0 8.3
             c 0 0 0 0 0 0 l -27.0 0 l 0 0
             c 0 0 0 0 0 0 l 0 -8.3 l 0 0
             c 0 -4.6 3.7 -8.3 8.3 -8.3 z
             M 43.1 9.6 l -7.2 7.7
             M 43.1 9.6 l -7.2 7.7
             M 47.1 12.6 l -7.4 6.9
             M 47.1 12.6 l -7.4 6.9
             M 10.4 15.4 l 6.1 4.1
             M 10.4 15.4 l 6.1 4.1" />
  </g>
  <!-- proto sinaic "S" -->
  <g transform="translate(1392,0)">
    <path d="M 20,14 C 0,32 10,49 20,49 C 30,49 32,38 32,38 C 32,38 33,48 44,48 C 54,48 62,33 44,14" />
  </g>
  <!-- proto sinaic "T" -->
  <g transform="translate(1456,0)">
    <path d="M 31,12 L 31,49 M 49,31 L 13,31" />
  </g>
</svg>
