<?xml version="1.0" standalone="no"?>
<!DOCTYPE svg PUBLIC "-//W3C//DTD SVG 20010904//EN"
 "http://www.w3.org/TR/2001/REC-SVG-20010904/DTD/svg10.dtd">
<svg version="1.0" xmlns="http://www.w3.org/2000/svg"
 width="690.000000pt" height="26.000000pt" viewBox="0 0 690.000000 26.000000"
 preserveAspectRatio="xMidYMid meet">

<g transform="translate(0.000000,26.000000) scale(0.100000,-0.100000)"
fill="#000000" stroke="none">
<path d="M87 197 c-20 -18 -37 -35 -37 -38 0 -3 19 -14 41 -25 l42 -18 -33
-27 c-19 -16 -27 -29 -21 -34 13 -7 90 45 91 61 0 6 -18 19 -41 29 l-41 19 32
26 c17 14 28 29 24 33 -11 11 -16 9 -57 -26z"/>
<path d="M381 206 l-23 -25 22 -30 21 -31 -21 -31 c-28 -38 -18 -50 15 -19
l25 23 25 -23 c33 -31 44 -18 16 20 l-22 30 22 30 c29 38 15 54 -16 18 -23
-26 -23 -26 -41 -7 -16 18 -16 20 -1 37 34 38 13 45 -22 8z"/>
<path d="M630 223 c0 -4 12 -24 26 -45 l27 -38 -28 -40 c-36 -51 -23 -66 17
-20 30 36 78 121 78 140 0 21 -20 9 -36 -22 l-16 -32 -27 32 c-25 31 -41 40
-41 25z"/>
<path d="M900 189 c-34 -48 -35 -52 -16 -72 13 -12 13 -17 0 -35 -10 -15 -11
-23 -3 -28 6 -3 15 0 20 7 48 72 50 78 39 99 -7 14 -8 26 0 39 21 39 -10 31
-40 -10z m20 -49 c0 -5 -4 -10 -10 -10 -5 0 -10 5 -10 10 0 6 5 10 10 10 6 0
10 -4 10 -10z"/>
<path d="M1110 223 c0 -5 11 -26 25 -48 16 -26 24 -55 25 -82 0 -24 5 -43 10
-43 6 0 10 19 10 43 0 29 8 54 25 79 14 20 25 42 25 47 0 21 -19 11 -37 -19
-9 -16 -20 -30 -23 -30 -3 0 -13 14 -22 30 -16 27 -38 41 -38 23z"/>
<path d="M1575 221 c-3 -5 9 -20 26 -32 l32 -22 -36 -19 c-20 -10 -38 -22 -41
-27 -7 -11 62 -71 81 -71 21 0 15 12 -18 40 l-32 26 42 18 c22 11 41 22 41 27
0 8 -74 69 -83 69 -3 0 -8 -4 -12 -9z"/>
<path d="M1870 218 c0 -7 9 -28 20 -45 20 -33 20 -33 0 -65 -11 -18 -20 -39
-20 -45 0 -26 18 -12 41 32 l24 45 -24 45 c-23 44 -41 58 -41 33z"/>
<path d="M1969 182 l-26 -47 19 -30 c10 -16 23 -36 27 -44 5 -8 13 -11 20 -7
7 5 2 20 -15 46 l-26 39 26 37 c23 34 26 54 8 54 -4 0 -19 -21 -33 -48z"/>
<path d="M2184 206 c-3 -13 -14 -26 -25 -29 -23 -6 -25 -27 -3 -27 11 0 15 -6
11 -20 -8 -31 11 -35 25 -5 19 42 42 28 46 -28 2 -26 8 -47 13 -47 6 0 9 26 7
63 -3 56 -5 62 -25 65 -17 3 -23 10 -23 28 0 31 -18 31 -26 0z"/>
<path d="M2410 186 c0 -36 5 -49 25 -64 15 -12 25 -30 25 -46 0 -14 5 -26 10
-26 6 0 10 12 10 26 0 16 10 34 25 46 20 15 25 28 25 64 0 24 -4 44 -10 44 -5
0 -10 -13 -10 -29 0 -16 -3 -36 -6 -45 -12 -31 -24 -16 -24 29 0 25 -4 45 -10
45 -5 0 -10 -21 -10 -46 0 -27 -4 -43 -10 -39 -5 3 -10 24 -10 46 0 28 -4 39
-15 39 -11 0 -15 -12 -15 -44z"/>
<path d="M3280 222 c0 -4 7 -18 16 -30 14 -20 14 -24 0 -44 -36 -52 -7 -98 62
-98 l42 0 0 90 c0 53 -4 90 -10 90 -6 0 -10 -32 -10 -75 0 -82 -10 -97 -49
-75 -27 14 -27 44 1 62 l23 15 -28 37 c-26 34 -47 46 -47 28z"/>
<path d="M3810 140 c0 -53 4 -90 10 -90 6 0 10 37 10 90 0 53 -4 90 -10 90 -6
0 -10 -37 -10 -90z"/>
<path d="M4057 223 c-4 -3 -7 -44 -7 -90 0 -66 3 -83 15 -83 10 0 15 16 17 60
l3 60 40 -60 c56 -83 65 -79 65 31 0 68 -3 90 -12 87 -8 -3 -14 -27 -16 -63
l-3 -58 -45 62 c-47 65 -47 65 -57 54z"/>
<path d="M4310 221 c0 -6 9 -16 21 -24 17 -12 19 -19 10 -35 -7 -14 -8 -29 -1
-46 8 -21 6 -27 -10 -36 -11 -6 -20 -15 -20 -20 0 -22 31 -8 77 34 l48 44 -30
32 c-27 28 -74 60 -90 60 -3 0 -5 -4 -5 -9z m85 -71 c8 -13 -14 -42 -26 -34
-5 3 -9 14 -9 25 0 20 24 26 35 9z"/>
<path d="M4570 140 c0 -69 3 -91 13 -87 8 2 12 29 12 87 0 58 -4 85 -12 88
-10 3 -13 -19 -13 -88z"/>
<path d="M4815 200 c-30 -32 -27 -52 5 -32 19 12 20 9 20 -53 0 -37 4 -65 10
-65 6 0 10 28 10 65 0 65 6 75 28 53 6 -6 15 -9 19 -5 6 7 -45 67 -57 67 -3 0
-19 -13 -35 -30z"/>
<path d="M5026 223 c-3 -3 -6 -44 -6 -90 0 -102 10 -105 65 -24 l40 59 5 -56
c3 -31 10 -57 18 -60 9 -3 12 19 12 87 0 53 -4 91 -10 91 -5 0 -30 -28 -55
-62 l-45 -62 0 56 c0 53 -9 76 -24 61z"/>
<path d="M5287 224 c-3 -4 5 -23 18 -43 31 -44 31 -45 0 -85 -14 -18 -25 -36
-25 -39 0 -10 30 -9 30 1 0 4 9 18 20 32 l19 25 30 -35 c39 -46 50 -33 15 19
l-27 41 27 41 c35 52 24 65 -15 19 l-30 -35 -19 25 c-11 14 -20 28 -20 33 0 9
-14 9 -23 1z"/>
<path d="M5770 140 c0 -73 3 -90 15 -90 10 0 15 10 15 30 0 25 4 30 23 30 36
0 67 27 67 60 0 37 -32 60 -82 60 l-38 0 0 -90z m90 41 c8 -16 6 -23 -12 -35
-35 -25 -48 -20 -48 19 0 31 3 35 25 35 14 0 29 -8 35 -19z"/>
<path d="M6305 220 c-3 -5 11 -16 32 -25 l37 -16 -34 -21 -35 -21 33 -15 c40
-19 40 -27 0 -38 -33 -10 -51 -34 -25 -34 8 0 31 7 51 15 40 17 48 47 19 65
-17 10 -17 10 0 20 30 19 20 46 -23 64 -47 19 -47 19 -55 6z"/>
<path d="M6707 224 c-3 -4 -1 -16 5 -27 9 -17 7 -23 -11 -35 -11 -8 -21 -18
-21 -23 0 -14 22 -10 42 8 26 23 33 10 20 -36 -15 -48 -15 -64 -1 -59 11 4 59
139 59 166 0 22 -20 12 -31 -15 -10 -27 -11 -27 -25 -9 -8 11 -14 23 -14 28 0
10 -14 11 -23 2z"/>
<path d="M4633 186 c-16 -35 -16 -37 3 -51 19 -15 19 -15 -3 -34 -23 -19 -31
-41 -15 -41 14 0 72 61 72 76 0 7 -9 15 -20 19 -16 5 -17 10 -10 30 15 40 -8
40 -27 1z"/>
<path d="M2803 176 c-29 -16 -53 -33 -53 -37 0 -8 102 -69 114 -69 3 0 6 6 6
13 0 7 -16 21 -35 30 -19 9 -35 20 -35 25 0 4 16 16 35 26 19 11 35 23 35 27
0 18 -18 14 -67 -15z"/>
<path d="M3067 204 c-16 -16 -5 -23 41 -26 l47 -3 3 -52 c2 -29 8 -53 13 -53
6 0 9 27 7 68 l-3 67 -50 3 c-28 2 -54 0 -58 -4z"/>
<path d="M5602 198 c-23 -29 -61 -117 -53 -122 5 -4 21 15 36 41 l28 46 24
-47 c16 -32 28 -45 35 -38 6 6 -1 30 -21 71 -17 33 -33 61 -35 61 -2 0 -8 -6
-14 -12z"/>
<path d="M6035 199 c-8 -12 -9 -12 33 -33 17 -9 32 -20 32 -25 0 -5 -16 -18
-36 -30 -19 -12 -32 -26 -29 -31 8 -13 110 43 110 60 0 16 -103 72 -110 59z"/>
<path d="M3560 180 c-11 -11 -20 -29 -20 -40 0 -27 35 -60 63 -60 50 0 76 70
39 103 -25 23 -58 21 -82 -3z m70 -29 c14 -28 -13 -55 -41 -41 -19 10 -26 40
-12 53 13 14 43 7 53 -12z"/>
</g>
</svg>
